<?xml version="1.0" encoding="utf-8"?>
<!-- Generator: Adobe Illustrator 25.0.0, SVG Export Plug-In . SVG Version: 6.00 Build 0)  -->
<svg version="1.1" id="Layer_1" xmlns="http://www.w3.org/2000/svg" xmlns:xlink="http://www.w3.org/1999/xlink" x="0px" y="0px"
	 viewBox="0 0 168 42" style="enable-background:new 0 0 168 42;" xml:space="preserve">
<style type="text/css">
	.st0{fill-rule:evenodd;clip-rule:evenodd;fill:#E2B060;}
	.st1{fill-rule:evenodd;clip-rule:evenodd;fill:url(#path-2_3_);}
	.st2{fill-rule:evenodd;clip-rule:evenodd;fill:url(#path-5_3_);}
	.st3{opacity:0.6;fill:url(#SVGID_1_);}
	.st4{fill:url(#SVGID_2_);}
	.st5{fill:url(#SVGID_3_);}
	.st6{opacity:0.6;fill:url(#SVGID_4_);}
	.st7{opacity:0.6;fill:url(#SVGID_5_);}
	.st8{opacity:0.6;fill:url(#SVGID_6_);}
	.st9{opacity:0.6;fill:url(#SVGID_7_);}
	.st10{opacity:0.7;fill:url(#SVGID_8_);}
	.st11{opacity:0.6;fill:url(#SVGID_9_);}
	.st12{opacity:0.5;fill:url(#SVGID_10_);}
	.st13{opacity:0.6;fill:url(#SVGID_11_);}
	.st14{opacity:0.5;fill:url(#SVGID_12_);}
	.st15{opacity:0.5;fill:url(#SVGID_13_);}
	.st16{opacity:0.6;fill:url(#SVGID_14_);}
	.st17{fill:url(#SVGID_15_);}
	.st18{opacity:0.6;fill:url(#SVGID_16_);}
	.st19{opacity:0.6;fill:url(#SVGID_17_);}
	.st20{opacity:0.6;fill:url(#SVGID_18_);}
	.st21{opacity:0.6;fill:url(#SVGID_19_);}
	.st22{opacity:0.6;fill:url(#SVGID_20_);}
	.st23{opacity:0.6;fill:url(#SVGID_21_);}
	.st24{fill:url(#SVGID_22_);}
	.st25{opacity:0.6;fill:url(#SVGID_23_);}
	.st26{opacity:0.4;fill:url(#SVGID_24_);}
	.st27{opacity:0.6;fill:url(#SVGID_25_);}
	.st28{opacity:0.6;fill:url(#SVGID_26_);}
	.st29{opacity:0.6;fill:url(#SVGID_27_);}
	.st30{fill:url(#SVGID_28_);}
	.st31{opacity:0.6;fill:url(#SVGID_29_);}
	.st32{opacity:0.6;fill:url(#SVGID_30_);}
	.st33{fill:#FFFEFD;}
	.st34{opacity:0.6;fill:url(#SVGID_31_);}
	.st35{opacity:0.6;fill:url(#SVGID_32_);}
	.st36{opacity:0.6;fill:url(#SVGID_33_);}
	.st37{fill:url(#SVGID_34_);}
	.st38{opacity:0.6;fill:url(#SVGID_35_);}
	.st39{opacity:0.6;fill:url(#SVGID_36_);}
	.st40{opacity:0.6;fill:url(#SVGID_37_);}
	.st41{fill:url(#SVGID_38_);}
	.st42{opacity:0.6;fill:url(#SVGID_39_);}
	.st43{fill:url(#SVGID_40_);}
	.st44{opacity:0.6;fill:url(#SVGID_41_);}
	.st45{fill:url(#SVGID_42_);}
	.st46{fill:url(#SVGID_43_);}
	.st47{opacity:0.42;fill:#FFFFFF;}
	.st48{fill:url(#SVGID_44_);}
	.st49{opacity:0.5;fill:#FFFFFF;}
	.st50{opacity:0.55;fill:url(#SVGID_45_);}
	.st51{fill:#E2B060;}
	.st52{fill:url(#SVGID_46_);}
</style>
<g>
	<g>
		<g id="Mask_3_">
			<path id="path-2_2_" class="st0" d="M132.8,3v11.3c2,0.3,3.9,1,5.5,2.1h0c1.6,1.1,2.9,2.4,3.9,4.1c0.5,0.8,0.9,1.7,1.3,2.6
				c0.1,0.2,0.2,0.4,0.2,0.7c0,0,0,0.1,0,0.1c0,0,0,0.1,0,0.1c0.1,0.3,0.1,0.5,0.2,0.8c0,0.1,0,0.2,0.1,0.3c0,0.2,0.1,0.3,0.1,0.5
				c0,0.1,0,0.2,0.1,0.4c0,0.2,0.1,0.5,0.1,0.7c0,0.1,0,0.2,0,0.4c0,0.2,0,0.4,0,0.7c0,0,0,0.1,0,0.1c0,0,0,0,0,0c0,0,0,0,0,0
				c0,0,0,0.1,0,0.1c0,0.2,0,0.4,0,0.7c0,0.1,0,0.2,0,0.4c0,0.2,0,0.5-0.1,0.7c0,0.1,0,0.2-0.1,0.4c0,0.2-0.1,0.3-0.1,0.5
				c0,0.1,0,0.2-0.1,0.3c-0.1,0.3-0.1,0.5-0.2,0.8c0,0,0,0.1,0,0.1c0,0,0,0.1,0,0.1c-0.1,0.2-0.1,0.4-0.2,0.7
				c-0.3,0.9-0.7,1.8-1.3,2.6c-1,1.6-2.3,3-3.9,4.1h0c-1.6,1.1-3.5,1.8-5.5,2.1l0,0v-2.1c2.3-0.4,4.3-1.5,6.1-3.2
				c2.2-2.2,3.4-5,3.4-8.1c0-3.2-1.1-5.9-3.4-8.1c-2.3-2.3-5-3.4-8.2-3.4v-4v-3V7.5V6.2V3.7V0.9h13.7V3H132.8z M165.3,15.6
				c0,2.8-1,5.3-3,7.3c-2,2-4.4,3-7.3,3c-1.7,0-3.4-0.5-4.9-1.3c-1.6-0.9-2.9-2.1-3.8-3.5c-0.5-0.8-0.9-1.7-1.2-2.6
				c-0.3-0.9-0.4-1.9-0.4-2.9c0-2.8,1-5.3,3-7.3c2-2,4.5-3,7.3-3c2.8,0,5.3,1,7.3,3C164.3,10.3,165.3,12.7,165.3,15.6L165.3,15.6z
				 M165.8,9.4c-1.1-1.9-2.5-3.4-4.3-4.5c-0.9-0.6-2-1-3.1-1.4c-1.1-0.3-2.3-0.5-3.5-0.5c-2.2,0-4.3,0.5-6.1,1.6
				c-1.9,1.1-3.4,2.5-4.5,4.3c-0.6,0.9-1.1,2-1.4,3.1c-0.3,1.1-0.5,2.3-0.5,3.5c0,2.2,0.5,4.3,1.6,6.1c1.1,1.9,2.5,3.4,4.3,4.5
				c0.9,0.6,2,1.1,3.1,1.4c1.1,0.3,2.3,0.5,3.5,0.5c2.2,0,4.3-0.5,6.1-1.6c1.9-1.1,3.4-2.5,4.5-4.3c0.6-0.9,1-2,1.4-3.1
				c0.3-1.1,0.5-2.3,0.5-3.5C167.4,13.4,166.9,11.3,165.8,9.4L165.8,9.4z"/>
		</g>
		<g id="Mask_2_">
			<path id="path-5_2_" class="st0" d="M123.2,26.2c-0.1,0.6-0.8,1-1.5,1c-1.1,0-2.3-1-2.3-3.5c0-2.3,1.1-3.2,2-3.2
				c0.8,0,1.6,0.5,1.7,1.7V26.2z M125.7,27c-1.1,0.1-1.1-0.3-1.1-1v-9.7l-0.1,0c-0.8,0.3-1.6,0.5-2.4,0.8v0.3c0.1,0,0.3,0,0.4,0
				c0.7,0,0.7,0.4,0.7,0.9v2.7c-0.5-0.5-1-0.7-1.7-0.7c-1.8,0-3.4,2-3.4,4.2c0,3.5,2.3,3.8,3,3.8c1.2,0,1.8-0.6,2.1-1.1h0v1l0.1,0.1
				c0.9-0.3,1.6-0.6,2.4-0.9V27z M114.2,28h3.9v-0.3c-0.9-0.1-1.2-0.2-1.2-1.2V16.3l-0.1,0c-0.9,0.3-1.7,0.5-2.6,0.8v0.3
				c0.2,0,0.3,0,0.6,0c0.6,0,0.7,0.3,0.7,1v8.2c0,0.9-0.3,1.2-1.3,1.2V28z M110.2,26.5c0,1-0.3,1-1.2,1.2V28h3.9v-0.3
				c-0.8,0-1.4-0.1-1.4-1.3v-3.9c0-0.5,0.7-1.4,1.1-1.4c0.4,0,0.6,0.6,1.1,0.6c0.4,0,0.6-0.3,0.6-0.8c0-0.6-0.3-0.9-0.9-0.9
				c-0.6,0-1.2,0.3-1.9,1.6h0v-1.5l-0.1,0c-0.8,0.3-1.6,0.7-2.4,0.9v0.3c0.1,0,0.3-0.1,0.6-0.1c0.3,0,0.6,0,0.6,1V26.5z M105.3,27.7
				c-2,0-2.3-3.2-2.3-4.4c0-1.8,0.9-2.7,1.9-2.7c1.5,0,2.3,1.9,2.3,4C107.3,27,106.2,27.7,105.3,27.7L105.3,27.7z M105.1,20.1
				c-2.2,0-3.5,1.9-3.5,4c0,2.3,1.5,4.1,3.6,4.1c2.5,0,3.6-2.4,3.6-4.1C108.7,21.6,107.2,20.1,105.1,20.1L105.1,20.1z M103.4,16.6
				h-3.2V17c0.6,0.1,1.1,0.1,1.1,0.8c0,0.4-0.1,0.9-0.3,1.2l-2,5.8L96.9,19c-0.2-0.7-0.4-1-0.4-1.3c0-0.6,0.8-0.7,1.3-0.7v-0.3h-4.4
				V17c0.9,0,1.1,0.1,1.7,1.5l0.5,1.4l-1.8,4.8l-2.4-6.4c-0.1-0.2-0.2-0.5-0.2-0.8c0-0.4,0.3-0.5,1.1-0.6v-0.3h-4V17
				c0.9,0.1,1.2,0.6,1.7,2c0.6,1.7,2.3,6.6,3.2,9.2h0.2l2.5-7.2c0.7,1.9,2,5.5,2.6,7.2h0.2c1-3.3,2.3-7,3.4-10.2
				c0.2-0.7,0.5-0.9,1.3-1V16.6z M55.1,16.7c0,0,0.2-0.3,0.4-0.6c0.3-0.5,0.9-1.1,1.4-1.5c0.1-0.1,0.3-0.3,0.3-0.3s-0.3,0-0.4,0.1
				c-0.3,0.1-0.9,0.4-1.1,0.6c-0.4,0.4-0.9,0.9-0.7,1.5C55,16.6,55.1,16.7,55.1,16.7L55.1,16.7z M57.4,17.3c0.7,0,1.3-0.2,1.9-0.6
				c0.6-0.3,1.4-0.9,1.3-1.7c0-0.2-0.2-0.4-0.4-0.5c-0.3-0.1-0.4-0.1-0.7,0c-0.2,0.1-0.3,0.1-0.6,0.2c-0.6,0.4-1.6,1.2-2.1,1.8
				c-0.1,0.2-0.2,0.3-0.3,0.4c-0.1,0.1-0.1,0.1-0.1,0.2C56.4,17.3,57.1,17.3,57.4,17.3L57.4,17.3z M55.7,18.6
				c-0.1,0.1-0.1,0.2-0.2,0.4c0,0.1-0.1,0.2-0.2,0.2c-0.2,0.1-0.3,0.1-0.5,0c-0.2-0.2-0.4-0.5-0.4-0.8c0-0.1,0-0.3,0-0.4
				c0-0.2-0.2-0.4-0.3-0.6c-0.1-0.2-0.2-0.6-0.2-0.8c0-0.8,0.4-1.5,0.9-2c0.5-0.6,1.2-1,2-1.3c0.7-0.3,1.7-0.5,2.5-0.2
				c0.3,0.1,0.6,0.3,0.8,0.5c0,0,0.1,0.1,0.1,0.1c0,0,0.1,0,0.2,0c0.2,0,0.6,0.2,0.7,0.4c0.3,0.3,0.4,0.5,0.5,0.8
				c0.1,0.7-0.3,1.5-0.7,1.9c-0.8,0.8-1.6,1.4-2.6,1.8c-0.4,0.2-1.1,0.3-1.6,0.3c-0.2,0-0.3-0.1-0.5-0.1
				C56.1,18.7,55.8,18.6,55.7,18.6C55.8,18.6,55.7,18.5,55.7,18.6L55.7,18.6z M31.6,20.6c0.4,0,0.7,0,1-0.2c0.2-0.1,0.4-0.3,0.3-0.5
				c-0.1-0.1-0.3-0.2-0.4-0.2C32.1,19.8,31.8,20.2,31.6,20.6C31.6,20.6,31.6,20.6,31.6,20.6L31.6,20.6z M33.5,19.5
				c0.2,0.3,0.4,0.7,0.4,1.1c0,0.4-0.1,0.8-0.3,1.1c-0.4,0.5-1,0.8-1.6,0.8c-0.1,0-0.6,0-0.7,0c0,0,0,0-0.1,0c0,0-0.1,0.4-0.1,0.5
				c-0.1,0.4-0.1,0.7-0.2,1.1c0,0.3-0.1,0.6-0.1,0.9c-0.1,1.7-0.1,2.5,0,4.2c0,0.1,0,0.2,0,0.3c0,0.2-0.2,0.3-0.4,0.4
				c-0.6,0.2-1.2-0.4-1.4-0.9c-0.7-1.1-0.5-3.3-0.3-4.4c0.1-0.5,0.3-1.5,0.4-1.8c0.1-0.2,0.2-0.6,0.2-0.6c0,0-0.3-0.1-0.6-0.2
				c-0.1,0-0.5-0.2-0.6-0.3c-0.3-0.2-0.5-0.4-0.7-0.6c-0.1-0.1-0.3-0.4-0.3-0.5c-0.2-0.4-0.2-0.7,0-1.2c0-0.1,0.3-0.6,0.4-0.6
				c0.2,0,0.2,0.4,0.2,0.5c0,0.1,0.1,0.2,0.1,0.2c0.3,0.3,1.3,0.7,1.7,0.8c0.1,0,0.7,0.2,0.8,0.2c0,0,0.1-0.2,0.2-0.3
				c0-0.1,0.1-0.1,0.1-0.2c0.4-0.4,0.9-0.8,1.5-0.9c0.2-0.1,0.7,0,1,0.1C33.1,19.2,33.3,19.3,33.5,19.5L33.5,19.5z M27.6,24.4
				C27.6,24.4,27.6,24.4,27.6,24.4c0.4,0.1,0.4,0.7,0.3,0.9c-0.2,0.6-0.8,1.3-1.3,1.6c-0.3,0.2-0.9,0.5-1.3,0.5
				c-0.7,0.1-1.2,0-1.6-0.6c-0.3-0.5-0.5-1.1-0.5-1.6c-0.1-1.6,0.4-3.9,1.1-5.3c0.1-0.2,0.5-1,0.9-1.1c0.4-0.1,0.5,0.3,0.6,0.6
				c0,0.4-0.1,1-0.2,1.5c-0.2,0.8-0.5,2.1-0.5,2.4c-0.1,0.4-0.2,1.2-0.2,1.6c0,0.2,0.1,0.3,0.2,0.3c0.1,0,1.1-0.5,1.7-0.7
				C27.1,24.4,27.3,24.4,27.6,24.4L27.6,24.4z M19.7,23.6c0,0,0.1,0,0.2,0c0.4,0,1.1-0.1,1.1-0.1s-0.1-0.6-0.1-1
				c0-0.2-0.1-0.4-0.1-0.6c0-0.1-0.1-0.3-0.1-0.4c0,0,0,0,0,0s-0.3,0.6-0.5,1.1c-0.1,0.3-0.2,0.6-0.3,0.8
				C19.7,23.4,19.7,23.5,19.7,23.6C19.7,23.6,19.7,23.6,19.7,23.6L19.7,23.6z M17.5,23.7c0,0,0.2-0.4,0.3-0.8
				c0.2-0.3,0.9-1.9,1.3-2.4c0.4-0.5,1.1-1.5,1.1-1.5c0-0.1,0-0.3,0.1-0.4c0.1-0.1,0.3-0.2,0.4-0.2c0.2,0,0.4,0.1,0.5,0.3
				c0.2,0.3,0.5,1.2,0.5,1.4c0.3,1.2,0.7,3.4,0.8,4.6c0,0.3,0.1,1.9,0.1,2.2c0,0.2,0,0.7-0.1,0.9c-0.1,0.1-0.2,0.1-0.2,0.1
				c-0.1,0-0.4-0.2-0.5-0.3c-0.3-0.3-0.5-0.6-0.6-1c-0.1-0.3-0.1-1.3-0.1-1.3l-1.4,0.1l-0.8,0c0,0-0.1,0.2-0.1,0.3
				c-0.1,0.3-0.2,0.6-0.3,0.8c-0.1,0.4-0.3,1.1-0.3,1.2c-0.1,0.2-0.2,0.4-0.4,0.4c-0.3,0-0.4,0.1-0.6,0c-0.4-0.2-0.5-0.6-0.6-1
				c-0.1-0.7,0.2-1.3,0.5-2.1c0.1-0.4,0-0.5-0.3-0.9c0-0.1-0.1-0.1-0.1-0.2c0,0,0-0.2,0.1-0.2c0,0,0,0,0.1,0L17.5,23.7z M9.5,19.1
				c0,0,0-0.5-0.1-0.7c0-0.2-0.1-0.4-0.2-0.5c-0.1-0.2-0.2-0.3-0.4-0.3c-0.2,0-0.3,0.1-0.5,0.3C8.3,18.2,8.1,18.7,8,19
				c-0.2,0.5-0.2,0.8-0.3,1.3c-0.1,0.9-0.3,2.4-0.1,3.4c0,0.2,0.1,0.4,0.1,0.4S7.8,24,8,23.8c0.1-0.1,0.4-0.5,0.4-0.6
				c0.1-0.1,0.2-0.3,0.2-0.4c0-0.1,0.3-0.5,0.3-0.7c0.1-0.2,0.2-0.6,0.3-0.8c0.2-0.6,0.2-0.9,0.3-1.6C9.5,19.7,9.5,19.1,9.5,19.1
				L9.5,19.1L9.5,19.1z M8,25.7c0,0,0.1,0.1,0.2,0.3c0.4,0.6,1,1,1.7,1c0.7,0,1.7-0.4,2.2-0.8c1.5-1.1,2.4-3,2.8-4.9
				c0.5-2.2,0.5-4.5-0.1-6.6c-0.4-1.2-1.1-2.7-1.9-3.7c-0.3-0.3-0.7-0.6-0.8-0.8c-0.1-0.2-0.1-0.3,0-0.4c0.2-0.1,0.6,0.1,0.8,0.2
				c1,0.6,1.7,1.2,2.3,2.1c0.2,0.2,0.8,1.2,0.9,1.4c0.7,1.3,1,2.4,1.2,3.8c0.2,1.8,0.1,3.9-0.5,5.7c-0.3,0.8-0.7,1.6-1.1,2.3
				c-0.1,0.2-0.7,1-0.8,1.1c-0.2,0.2-0.8,0.7-1,0.9c-1.3,1-2.6,1.7-4.1,1.5c-0.8-0.1-1.5-0.4-2.2-0.9c-0.3-0.2-0.7-0.6-0.9-1
				c-0.1-0.2-0.2-0.4-0.3-0.4c0,0-0.1,0-0.2,0.1c-0.1,0-0.4,0.2-0.5,0.2c-1,0.4-2.2,0.3-3.1-0.3c-0.7-0.4-1.3-1.3-1.5-2.1
				c-0.4-1.1-0.4-2.3-0.3-3.5c0.3-2.1,1-4,2.1-5.7c0.7-1.1,1.6-2.2,2.7-2.9c0.1-0.1,0.8-0.5,0.9-0.5c0.2-0.1,0.6-0.2,0.8,0
				c0.1,0.1,0.1,0.2,0,0.3c-0.1,0.2-0.4,0.5-0.6,0.7c-0.1,0.2-0.9,1.1-1.1,1.4c-0.2,0.2-1,1.5-1.1,1.6c-1,1.8-1.8,4.6-1.7,6.7
				c0,0.4,0.1,1.1,0.2,1.5c0.1,0.6,0.5,1.3,1,1.7c0.5,0.4,1,0.4,1.7,0.1c0.2-0.1,0.4-0.2,0.4-0.2S5.7,25.3,5.6,25
				c-0.3-1-0.5-2.6-0.3-3.7C5.3,20.4,5.5,19.7,6,19c0.3-0.6,0.8-1.1,1.3-1.6c0.5-0.4,1.4-0.8,2.1-0.9c0.6,0,1.2,0.3,1.6,0.8
				c0.6,1,0.6,2.5,0.4,3.5c-0.2,1.5-1,2.9-2.2,3.9C8.8,25.1,8,25.7,8,25.7L8,25.7z M56.6,20.1c0,0,0.1,0,0.1,0
				c0.4,0.1,0.5,0.5,0.6,0.8c0.2,0.8,0.3,2.7,0.3,3.4c0,0.5,0,1.1,0.1,1.6c0,0.5,0.1,1.1,0,1.5c0,0.2-0.1,0.3-0.3,0.4
				C57.2,28,56.8,28,56.6,28c-0.5-0.1-0.7-0.4-0.8-0.9c-0.2-1.2-0.1-3.6,0-4.6c0-0.3,0.2-1.4,0.3-1.9C56.3,20.4,56.4,20.1,56.6,20.1
				L56.6,20.1z M40.7,21.9c0,0-0.8,0.1-1.3,0.1c-0.7,0.1-1.9,0.3-2.7,0.6c-0.2,0.1-0.7,0.3-0.7,0.5c0,0.2,0.1,0.4,0.3,0.6
				c0.1,0.1,0.6,0.6,0.8,0.7c0.6,0.5,1.9,1.3,2.8,1.7c0.3,0.1,0.8,0.3,0.8,0.3s0-1.5,0-3C40.6,22.7,40.7,21.9,40.7,21.9L40.7,21.9z
				 M54.7,22.5c0,0.4-0.1,1.2-0.1,1.3c0,0.2-0.2,0.8-0.2,0.8c-0.1,0.3-0.3,0.6-0.4,0.9c-0.3,0.5-0.8,1.2-1.2,1.5
				c-1.3,1.1-3.4,1.8-5.1,2c-1.2,0.1-2.6,0.1-3.8-0.1c-0.4-0.1-1.1-0.2-1.1-0.2s0,0.3,0,0.4c0,0.1-0.1,0.3-0.1,0.4
				c-0.1,0.2-0.2,0.3-0.5,0.3c-0.3,0-0.5,0.1-0.8,0c-0.4-0.2-0.5-0.5-0.6-1c-0.1-0.3-0.1-0.9-0.1-0.9s-0.3-0.1-0.5-0.3
				c-0.8-0.4-1.5-0.8-2.1-1.3c-0.2-0.1-0.9-0.8-1.1-0.9c-0.5-0.4-0.9-0.9-1.2-1.5c-0.3-0.4-0.3-0.8-0.1-1.3c0.3-0.7,1.2-1.2,1.8-1.4
				c0.5-0.2,1.9-0.7,2.6-0.8c0.3,0,0.7-0.1,0.8-0.1c0,0,0,0,0,0c0,0,0-0.7,0-0.9c0-0.2,0.2-1.8,0.2-2.1c0-0.2,0.2-0.9,0.3-1
				c0.1-0.1,0.2-0.1,0.4,0c0.7,0.4,0.9,1.9,1,2.7c0,0.5,0,1.2,0,1.2s0.8,0,1.3,0c0.5,0,1,0.1,1.5,0.2c0.6,0.1,1.9,0.4,2.6,0.7
				c0.6,0.3,1.1,0.8,1.3,1.3c0.2,0.5,0.1,0.8-0.1,1.3c-0.3,0.5-0.8,0.9-1.4,0.9c-0.2,0-0.8-0.1-1-0.2c-0.1-0.1-0.1-0.2,0-0.2
				c0,0,0.3-0.2,0.5-0.3c0.1,0,0.2-0.1,0.2-0.2c0.1-0.1,0.3-0.3,0.3-0.4c0-0.2-0.2-0.3-0.4-0.4c-1-0.4-2.9-0.7-3.9-0.8
				c-0.4,0-0.9,0-0.9,0l0.1,5.2c0,0,0.4,0.1,0.8,0.1c0.2,0,1,0.1,1.2,0.1c1.7,0,3.6-0.1,5.1-0.8c0.7-0.3,1.3-0.7,1.8-1.3
				c0.6-0.7,0.9-1.7,0.9-2.7c-0.1-1.1-0.9-2.4-1.5-3.2c-1.6-2.1-4.5-3.9-6.9-4.9c-2.5-1-5-1.6-7.7-1.7c-0.7,0-2.2,0-3,0.2
				c-0.1,0-0.2,0.1-0.3,0.1c-0.1,0-0.2,0.1-0.2,0.1c0,0,0,0,0,0s0,0,0.1,0c0.1,0,0.4,0.1,0.6,0.1c0.2,0,0.3,0.1,0.4,0.2
				c0.1,0.1,0.1,0.2,0,0.3C33.7,14,33,14,32.8,13.9c-0.3,0-0.7-0.1-0.7-0.4c-0.1-0.3,0.1-0.6,0.2-0.9c0.3-0.6,0.8-0.8,1.4-1
				c0.9-0.3,2.1-0.4,3-0.5c2-0.1,3.9,0.3,5.8,0.9c1.1,0.3,2.6,0.9,3.6,1.4c0.8,0.4,2,1,2.6,1.5c0.2,0.1,1.5,1.1,1.7,1.2
				c0.4,0.3,0.9,0.8,1.3,1.2c0.7,0.7,1.7,1.9,2.1,2.8c0.1,0.2,0.2,0.4,0.3,0.7c0,0.1,0.3,0.6,0.3,0.7c0,0.1,0.1,0.4,0.1,0.4
				C54.6,21.9,54.7,22.4,54.7,22.5L54.7,22.5z M63.3,22.9C63.4,22.9,63.4,22.9,63.3,22.9c0.7,0.1,1.3,0.2,1.8,0.4
				c0.4,0.2,0.7,0.4,0.9,0.9c0.3,0.6,0.4,1.5,0.1,2.2c-0.2,0.5-0.7,0.9-1.2,1.2c-0.5,0.2-1,0.3-1.5,0.4c-1,0.1-2-0.1-2.9-0.5
				c-0.5-0.3-1.1-0.7-1.5-1.2c-0.2-0.4-0.2-0.9,0.1-1.3c0.5-0.6,1.4-0.8,2.1-0.7c0.6,0,1.6,0.2,2.1,0.4c0.1,0.1,0.7,0.3,0.8,0.4
				c0.1,0.1,0.1,0.2,0.1,0.3c-0.1,0.4-1,0.6-1.3,0.6c-0.7,0.1-1.1-0.2-1.8-0.5c-0.2-0.1-0.5-0.2-0.7-0.2c-0.4,0-0.8,0.1-0.9,0.5
				c0,0.2,0.2,0.4,0.4,0.5c0.4,0.2,0.8,0.2,1.2,0.3c1.2,0,2.6-0.2,3.6-0.9c0.1-0.1,0.3-0.2,0.3-0.4c0-0.2-0.2-0.5-0.6-0.6
				c-0.7-0.3-1.9-0.4-2.6-0.5c-0.7-0.1-1.7-0.1-2-0.2c-0.3,0-0.5-0.1-0.8-0.2c-0.2-0.1-0.5-0.3-0.5-0.6c-0.1-0.5,0-1,0.3-1.4
				c0.7-1,2.2-1.3,3.4-1.5c1.1-0.1,3-0.1,4.1,0.5c0.2,0.1,0.3,0.2,0.2,0.4c-0.1,0.3-0.3,0.6-0.6,0.7c-0.3,0.1-1,0.1-1.3,0.2
				c-1.3,0.1-3,0-4.3,0.4c-0.1,0-0.3,0.1-0.3,0.1c-0.2,0.2,0.4,0.3,0.5,0.3c0,0,0,0,0.1,0L63.3,22.9z M67.5,27.9
				c-0.5-0.2-0.7-1.1-0.7-1.5c-0.1-1.4,0.3-3.5,0.8-4.8c0.1-0.4,0.3-1,0.8-1c0.3,0,0.5,0.3,0.7,0.5c0.4,0.6,1,1.4,1.4,2
				c0.4,0.6,0.8,1.3,1.2,1.9c0,0.1,0.1,0.1,0.1,0.2c0.1,0.1,0.1,0.1,0.2,0c0,0,0-0.7,0-0.9c0-0.2,0-0.4-0.1-0.6
				c-0.1-0.6-0.3-1.4-0.4-2c-0.2-0.6-0.4-1.3-0.5-1.9c0-0.2-0.1-0.4-0.1-0.6c0-0.3,0.2-0.4,0.5-0.3c0.6,0.2,1.3,1.4,1.5,1.8
				c0.1,0.1,0.4,0.9,0.4,1.1c0.2,0.7,0.4,1.3,0.4,2.1c0.1,0.7,0,1.8-0.3,2.5c-0.1,0.3-0.3,0.6-0.5,0.8c-0.3,0.3-0.9,0.5-1.3,0.3
				c-0.5-0.3-1.2-1.6-1.3-1.8c-0.4-0.8-1.2-2.2-1.3-2.4c0,0-0.1-0.1-0.1-0.1c0,0-0.1,0.1-0.1,0.1c-0.1,0.4-0.1,2.4-0.1,2.5
				c0,0.3,0,1.2-0.1,1.6c-0.1,0.3-0.1,0.5-0.4,0.6C67.9,28.1,67.7,28,67.5,27.9L67.5,27.9z M75,27.8c-0.1,0-0.2-0.1-0.2-0.2
				c0,0-0.2-0.3-0.2-0.4c0-0.1-0.1-0.1-0.1-0.2c-0.2-0.5-0.2-0.9-0.1-1.4c0.1-0.5,0.2-0.5,0.4-1.1c0,0,0-0.1,0-0.1
				c0-0.1-0.1-0.7-0.1-0.9c0-0.3,0.2-0.5,0.6-0.5c0,0,0.1,0,0.1,0c0.1,0,0.2-0.3,0.3-0.5c0.1-0.3,0.3-0.8,0.3-0.8s-0.5-0.1-0.7-0.2
				c-0.3-0.1-0.5-0.2-0.6-0.5c-0.2-0.3-0.1-0.5,0.3-0.6c0.1,0,1-0.2,1.3-0.3c0.4-0.1,0.7-0.1,1-0.1c0.3,0,1.7-0.2,2.1-0.2
				c0.7,0,1.1,0.3,1.5,0.8c0.2,0.3,0.3,0.7,0,0.8c-0.5,0.3-2,0.3-2.3,0.3c-0.5,0-1.1,0-1.1,0l-0.3,1.1c0,0,1.1,0,1.7,0
				c0.2,0,0.3,0,0.4,0c0.3,0.1,0.4,0.3,0.4,0.7c0,0.4-0.1,0.6-0.4,0.7c-0.2,0-2.1,0-2.4,0.1c-0.2,0-0.3,0-0.3,0s-0.1,0.4-0.3,0.7
				c-0.1,0.4-0.2,0.8-0.2,0.8s0.1,0,0.2,0c0.1,0,0.3,0,0.4,0c0.6-0.1,1.5-0.2,2.2-0.3c0.4-0.1,0.6-0.1,0.8,0.2
				c0.2,0.2,0.3,0.4,0.3,0.7c0,0.3-0.2,0.4-0.4,0.6c-0.8,0.6-2,1.2-3,1.3c-0.4,0.1-0.6,0-0.9-0.1c-0.1,0-0.3-0.1-0.3-0.2
				C75.2,28,75.1,27.9,75,27.8L75,27.8z M87.2,22.5c-0.5,0.4-1.1,1.3-1.4,1.7c-0.4,0.6-0.8,1.2-1.2,1.8c-0.1,0.1-0.3,0.5-0.3,0.5
				c0,0,0.3,0,0.5,0c0.5-0.1,1.2-0.5,1.6-0.8c0.6-0.5,1-1.1,1.2-1.8c0.1-0.3,0.1-1-0.1-1.4C87.4,22.5,87.2,22.4,87.2,22.5L87.2,22.5
				z M83.2,28.6c0,0-0.2,0.5-0.3,0.8c-0.2,0.6-0.6,2.3-0.7,2.8C82.1,33,81.6,35,81.6,35c0,0.1,0,0.1-0.1,0.1c-0.2,0.1-0.2,0.1-0.5,0
				c-0.3-0.1-0.5-0.3-0.7-0.6C79.9,34,80,33,80,32.4c0.3-2.1,0.6-3.1,1.4-5.2c0,0,0,0,0-0.1c-0.3-0.5-0.4-1.2-0.4-1.7
				c0-1.7,1-3.3,2-4.6c0.1-0.1,0.6-0.7,0.8-0.7c0.2,0,0.3,0.3,0.2,0.5c-0.1,0.8-0.7,1.5-1,2.2c-0.4,0.7-0.5,1-0.7,1.7
				c0,0.1-0.1,0.6-0.1,0.6c0,0.2,0,0.4,0,0.4s0.7-0.9,1.1-1.5c0.2-0.3,0.4-0.5,0.6-0.8c0.2-0.2,1-1.1,1.2-1.3
				c0.5-0.5,0.7-0.6,1.2-0.9c0.4-0.2,0.8-0.3,1.2,0c0.6,0.4,0.9,1.3,1,2c0.1,0.9-0.1,1.8-0.5,2.5c-0.4,0.9-1.1,1.5-1.9,2
				c-0.8,0.6-1.8,0.9-2.8,0.9C83.4,28.6,83.2,28.6,83.2,28.6L83.2,28.6z"/>
		</g>
	</g>
	<g id="Mask">
		
			<linearGradient id="path-2_3_" gradientUnits="userSpaceOnUse" x1="-442.6179" y1="958.2274" x2="-442.6179" y2="957.2274" gradientTransform="matrix(36.8308 0 0 -40.3712 16450.9355 38685.875)">
			<stop  offset="0" style="stop-color:#F9EBC6"/>
			<stop  offset="0.1735" style="stop-color:#F3D799"/>
			<stop  offset="0.5347" style="stop-color:#E6C57F"/>
			<stop  offset="1" style="stop-color:#D9B46E"/>
		</linearGradient>
		<path id="path-2_1_" class="st1" d="M132.7,3.2v11.3c2,0.3,3.9,1,5.5,2.1h0c1.6,1.1,2.9,2.4,3.9,4.1c0.5,0.8,0.9,1.7,1.3,2.6
			c0.1,0.2,0.2,0.4,0.2,0.7c0,0,0,0.1,0,0.1c0,0,0,0.1,0,0.1c0.1,0.3,0.1,0.5,0.2,0.8c0,0.1,0,0.2,0.1,0.3c0,0.2,0.1,0.3,0.1,0.5
			c0,0.1,0,0.2,0.1,0.4c0,0.2,0.1,0.5,0.1,0.7c0,0.1,0,0.2,0,0.4c0,0.2,0,0.4,0,0.7c0,0,0,0.1,0,0.1c0,0,0,0,0,0c0,0,0,0,0,0
			c0,0,0,0.1,0,0.1c0,0.2,0,0.4,0,0.7c0,0.1,0,0.2,0,0.4c0,0.2,0,0.5-0.1,0.7c0,0.1,0,0.2-0.1,0.4c0,0.2-0.1,0.3-0.1,0.5
			c0,0.1,0,0.2-0.1,0.3c-0.1,0.3-0.1,0.5-0.2,0.8c0,0,0,0.1,0,0.1c0,0,0,0.1,0,0.1c-0.1,0.2-0.1,0.4-0.2,0.7
			c-0.3,0.9-0.7,1.8-1.3,2.6c-1,1.6-2.3,3-3.9,4.1h0c-1.6,1.1-3.5,1.8-5.5,2.1l0,0v-2.1c2.3-0.4,4.3-1.5,6.1-3.2
			c2.2-2.2,3.4-5,3.4-8.1c0-3.2-1.1-5.9-3.4-8.1c-2.3-2.3-5-3.4-8.2-3.4v-4v-3V7.7V6.4V3.8V1h13.7v2.2H132.7z M165.2,15.7
			c0,2.8-1,5.3-3,7.3c-2,2-4.4,3-7.3,3c-1.7,0-3.4-0.5-4.9-1.3c-1.6-0.9-2.9-2.1-3.8-3.5c-0.5-0.8-0.9-1.7-1.2-2.6
			c-0.3-0.9-0.4-1.9-0.4-2.9c0-2.8,1-5.3,3-7.3c2-2,4.5-3,7.3-3c2.8,0,5.3,1,7.3,3C164.2,10.4,165.2,12.9,165.2,15.7L165.2,15.7z
			 M165.8,9.6c-1.1-1.9-2.5-3.4-4.3-4.5c-0.9-0.6-2-1-3.1-1.4c-1.1-0.3-2.3-0.5-3.5-0.5c-2.2,0-4.3,0.5-6.1,1.6
			c-1.9,1.1-3.4,2.5-4.5,4.3c-0.6,0.9-1.1,2-1.4,3.1c-0.3,1.1-0.5,2.3-0.5,3.5c0,2.2,0.5,4.3,1.6,6.1c1.1,1.9,2.5,3.4,4.3,4.5
			c0.9,0.6,2,1.1,3.1,1.4c1.1,0.3,2.3,0.5,3.5,0.5c2.2,0,4.3-0.5,6.1-1.6c1.9-1.1,3.4-2.5,4.5-4.3c0.6-0.9,1-2,1.4-3.1
			c0.3-1.1,0.5-2.3,0.5-3.5C167.4,13.5,166.8,11.5,165.8,9.6L165.8,9.6z"/>
	</g>
	<g id="Mask_1_">
		
			<linearGradient id="path-5_3_" gradientUnits="userSpaceOnUse" x1="-451.3543" y1="944.3317" x2="-451.3543" y2="943.3317" gradientTransform="matrix(125.0891 0 0 -25.2781 56522.582 23881.0469)">
			<stop  offset="0" style="stop-color:#F5DFB2"/>
			<stop  offset="0.5347" style="stop-color:#F0CF95"/>
			<stop  offset="1" style="stop-color:#B48A5C"/>
		</linearGradient>
		<path id="path-5_1_" class="st2" d="M123.2,26.4c-0.1,0.6-0.8,1-1.5,1c-1.1,0-2.3-1-2.3-3.5c0-2.3,1.1-3.2,2-3.2
			c0.8,0,1.6,0.5,1.7,1.7V26.4z M125.6,27.2c-1.1,0.1-1.1-0.3-1.1-1v-9.7l-0.1,0c-0.8,0.3-1.6,0.5-2.4,0.8v0.3c0.1,0,0.3,0,0.4,0
			c0.7,0,0.7,0.4,0.7,0.9V21c-0.5-0.5-1-0.7-1.7-0.7c-1.8,0-3.4,2-3.4,4.2c0,3.5,2.3,3.8,3,3.8c1.2,0,1.8-0.6,2.1-1.1h0v1l0.1,0.1
			c0.9-0.3,1.6-0.6,2.4-0.9V27.2z M114.1,28.1h3.9v-0.3c-0.9-0.1-1.2-0.2-1.2-1.2V16.5l-0.1,0c-0.9,0.3-1.7,0.5-2.6,0.8v0.3
			c0.2,0,0.3,0,0.6,0c0.6,0,0.7,0.3,0.7,1v8.2c0,0.9-0.3,1.2-1.3,1.2V28.1z M110.1,26.7c0,1-0.3,1-1.2,1.2v0.3h3.9v-0.3
			c-0.8,0-1.4-0.1-1.4-1.3v-3.9c0-0.5,0.7-1.4,1.1-1.4c0.4,0,0.6,0.6,1.1,0.6c0.4,0,0.6-0.3,0.6-0.8c0-0.6-0.3-0.9-0.9-0.9
			c-0.6,0-1.2,0.3-1.9,1.6h0v-1.5l-0.1,0c-0.8,0.3-1.6,0.7-2.4,0.9v0.3c0.1,0,0.3-0.1,0.6-0.1c0.3,0,0.6,0,0.6,1V26.7z M105.3,27.8
			c-2,0-2.3-3.2-2.3-4.4c0-1.8,0.9-2.7,1.9-2.7c1.5,0,2.3,1.9,2.3,4C107.2,27.2,106.1,27.8,105.3,27.8L105.3,27.8z M105,20.3
			c-2.2,0-3.5,1.9-3.5,4c0,2.3,1.5,4.1,3.6,4.1c2.5,0,3.6-2.4,3.6-4.1C108.7,21.8,107.1,20.3,105,20.3L105,20.3z M103.4,16.8h-3.2
			v0.3c0.6,0.1,1.1,0.1,1.1,0.8c0,0.4-0.1,0.9-0.3,1.2l-2,5.8l-2.2-5.8c-0.2-0.7-0.4-1-0.4-1.3c0-0.6,0.8-0.7,1.3-0.7v-0.3h-4.4v0.3
			c0.9,0,1.1,0.1,1.7,1.5l0.5,1.4l-1.8,4.8l-2.4-6.4c-0.1-0.2-0.2-0.5-0.2-0.8c0-0.4,0.3-0.5,1.1-0.6v-0.3h-4v0.3
			c0.9,0.1,1.2,0.6,1.7,2c0.6,1.7,2.3,6.6,3.2,9.2h0.2l2.5-7.2c0.7,1.9,2,5.5,2.6,7.2h0.2c1-3.3,2.3-7,3.4-10.2
			c0.2-0.7,0.5-0.9,1.3-1V16.8z M55,16.9c0,0,0.2-0.3,0.4-0.6c0.3-0.5,0.9-1.1,1.4-1.5c0.1-0.1,0.3-0.3,0.3-0.3s-0.3,0-0.4,0.1
			c-0.3,0.1-0.9,0.4-1.1,0.6c-0.4,0.4-0.9,0.9-0.7,1.5C54.9,16.8,55,16.9,55,16.9L55,16.9z M57.3,17.5c0.7,0,1.3-0.2,1.9-0.6
			c0.6-0.3,1.4-0.9,1.3-1.7c0-0.2-0.2-0.4-0.4-0.5c-0.3-0.1-0.4-0.1-0.7,0c-0.2,0.1-0.3,0.1-0.6,0.2c-0.6,0.4-1.6,1.2-2.1,1.8
			c-0.1,0.2-0.2,0.3-0.3,0.4c-0.1,0.1-0.1,0.1-0.1,0.2C56.4,17.5,57.1,17.5,57.3,17.5L57.3,17.5z M55.6,18.7
			c-0.1,0.1-0.1,0.2-0.2,0.4c0,0.1-0.1,0.2-0.2,0.2c-0.2,0.1-0.3,0.1-0.5,0c-0.2-0.2-0.4-0.5-0.4-0.8c0-0.1,0-0.3,0-0.4
			c0-0.2-0.2-0.4-0.3-0.6c-0.1-0.2-0.2-0.6-0.2-0.8c0-0.8,0.4-1.5,0.9-2c0.5-0.6,1.2-1,2-1.3c0.7-0.3,1.7-0.5,2.5-0.2
			c0.3,0.1,0.6,0.3,0.8,0.5c0,0,0.1,0.1,0.1,0.1c0,0,0.1,0,0.2,0c0.2,0,0.6,0.2,0.7,0.4c0.3,0.3,0.4,0.5,0.5,0.8
			c0.1,0.7-0.3,1.5-0.7,1.9c-0.8,0.8-1.6,1.4-2.6,1.8c-0.4,0.2-1.1,0.3-1.6,0.3c-0.2,0-0.3-0.1-0.5-0.1C56,18.9,55.8,18.8,55.6,18.7
			C55.7,18.7,55.6,18.7,55.6,18.7L55.6,18.7z M31.6,20.8c0.4,0,0.7,0,1-0.2c0.2-0.1,0.4-0.3,0.3-0.5C32.8,20,32.6,20,32.5,20
			C32,20,31.7,20.3,31.6,20.8C31.6,20.8,31.6,20.8,31.6,20.8L31.6,20.8z M33.4,19.7c0.2,0.3,0.4,0.7,0.4,1.1c0,0.4-0.1,0.8-0.3,1.1
			c-0.4,0.5-1,0.8-1.6,0.8c-0.1,0-0.6,0-0.7,0c0,0,0,0-0.1,0c0,0-0.1,0.4-0.1,0.5c-0.1,0.4-0.1,0.7-0.2,1.1c0,0.3-0.1,0.6-0.1,0.9
			c-0.1,1.7-0.1,2.5,0,4.2c0,0.1,0,0.2,0,0.3c0,0.2-0.2,0.3-0.4,0.4c-0.6,0.2-1.2-0.4-1.4-0.9c-0.7-1.1-0.5-3.3-0.3-4.4
			c0.1-0.5,0.3-1.5,0.4-1.8c0.1-0.2,0.2-0.6,0.2-0.6c0,0-0.3-0.1-0.6-0.2c-0.1,0-0.5-0.2-0.6-0.3c-0.3-0.2-0.5-0.4-0.7-0.6
			C27.2,21,27,20.7,27,20.6c-0.2-0.4-0.2-0.7,0-1.2c0-0.1,0.3-0.6,0.4-0.6c0.2,0,0.2,0.4,0.2,0.5c0,0.1,0.1,0.2,0.1,0.2
			c0.3,0.3,1.3,0.7,1.7,0.8c0.1,0,0.7,0.2,0.8,0.2c0,0,0.1-0.2,0.2-0.3c0-0.1,0.1-0.1,0.1-0.2c0.4-0.4,0.9-0.8,1.5-0.9
			c0.2-0.1,0.7,0,1,0.1C33,19.4,33.2,19.4,33.4,19.7L33.4,19.7z M27.5,24.5C27.5,24.5,27.6,24.6,27.5,24.5c0.4,0.1,0.4,0.7,0.3,0.9
			c-0.2,0.6-0.8,1.3-1.3,1.6c-0.3,0.2-0.9,0.5-1.3,0.5c-0.7,0.1-1.2,0-1.6-0.6c-0.3-0.5-0.5-1.1-0.5-1.6c-0.1-1.6,0.4-3.9,1.1-5.3
			c0.1-0.2,0.5-1,0.9-1.1c0.4-0.1,0.5,0.3,0.6,0.6c0,0.4-0.1,1-0.2,1.5c-0.2,0.8-0.5,2.1-0.5,2.4c-0.1,0.4-0.2,1.2-0.2,1.6
			c0,0.2,0.1,0.3,0.2,0.3c0.1,0,1.1-0.5,1.7-0.7C27,24.6,27.3,24.5,27.5,24.5L27.5,24.5z M19.6,23.8c0,0,0.1,0,0.2,0
			c0.4,0,1.1-0.1,1.1-0.1s-0.1-0.6-0.1-1c0-0.2-0.1-0.4-0.1-0.6c0-0.1-0.1-0.3-0.1-0.4c0,0,0,0,0,0s-0.3,0.6-0.5,1.1
			c-0.1,0.3-0.2,0.6-0.3,0.8C19.6,23.6,19.6,23.7,19.6,23.8C19.6,23.8,19.6,23.8,19.6,23.8L19.6,23.8z M17.4,23.9
			c0,0,0.2-0.4,0.3-0.8c0.2-0.3,0.9-1.9,1.3-2.4c0.4-0.5,1.1-1.5,1.1-1.5c0-0.1,0-0.3,0.1-0.4c0.1-0.1,0.3-0.2,0.4-0.2
			c0.2,0,0.4,0.1,0.5,0.3c0.2,0.3,0.5,1.2,0.5,1.4c0.3,1.2,0.7,3.4,0.8,4.6c0,0.3,0.1,1.9,0.1,2.2c0,0.2,0,0.7-0.1,0.9
			c-0.1,0.1-0.2,0.1-0.2,0.1c-0.1,0-0.4-0.2-0.5-0.3c-0.3-0.3-0.5-0.6-0.6-1c-0.1-0.3-0.1-1.3-0.1-1.3l-1.4,0.1l-0.8,0
			c0,0-0.1,0.2-0.1,0.3c-0.1,0.3-0.2,0.6-0.3,0.8c-0.1,0.4-0.3,1.1-0.3,1.2c-0.1,0.2-0.2,0.4-0.4,0.4c-0.3,0-0.4,0.1-0.6,0
			c-0.4-0.2-0.5-0.6-0.6-1c-0.1-0.7,0.2-1.3,0.5-2.1c0.1-0.4,0-0.5-0.3-0.9c0-0.1-0.1-0.1-0.1-0.2c0,0,0-0.2,0.1-0.2c0,0,0,0,0.1,0
			L17.4,23.9z M9.5,19.3c0,0,0-0.5-0.1-0.7c0-0.2-0.1-0.4-0.2-0.5c-0.1-0.2-0.2-0.3-0.4-0.3c-0.2,0-0.3,0.1-0.5,0.3
			c-0.2,0.3-0.4,0.8-0.5,1.2c-0.2,0.5-0.2,0.8-0.3,1.3c-0.1,0.9-0.3,2.4-0.1,3.4c0,0.2,0.1,0.4,0.1,0.4s0.2-0.2,0.4-0.4
			c0.1-0.1,0.4-0.5,0.4-0.6C8.4,23.3,8.6,23,8.6,23c0-0.1,0.3-0.5,0.3-0.7c0.1-0.2,0.2-0.6,0.3-0.8c0.2-0.6,0.2-0.9,0.3-1.6
			C9.5,19.8,9.5,19.3,9.5,19.3L9.5,19.3L9.5,19.3z M7.9,25.9c0,0,0.1,0.1,0.2,0.3c0.4,0.6,1,1,1.7,1c0.7,0,1.7-0.4,2.2-0.8
			c1.5-1.1,2.4-3,2.8-4.9c0.5-2.2,0.5-4.5-0.1-6.6c-0.4-1.2-1.1-2.7-1.9-3.7c-0.3-0.3-0.7-0.6-0.8-0.8c-0.1-0.2-0.1-0.3,0-0.4
			c0.2-0.1,0.6,0.1,0.8,0.2c1,0.6,1.7,1.2,2.3,2.1c0.2,0.2,0.8,1.2,0.9,1.4c0.7,1.3,1,2.4,1.2,3.8c0.2,1.8,0.1,3.9-0.5,5.7
			c-0.3,0.8-0.7,1.6-1.1,2.3c-0.1,0.2-0.7,1-0.8,1.1c-0.2,0.2-0.8,0.7-1,0.9c-1.3,1-2.6,1.7-4.1,1.5c-0.8-0.1-1.5-0.4-2.2-0.9
			c-0.3-0.2-0.7-0.6-0.9-1c-0.1-0.2-0.2-0.4-0.3-0.4c0,0-0.1,0-0.2,0.1c-0.1,0-0.4,0.2-0.5,0.2c-1,0.4-2.2,0.3-3.1-0.3
			c-0.7-0.4-1.3-1.3-1.5-2.1c-0.4-1.1-0.4-2.3-0.3-3.5c0.3-2.1,1-4,2.1-5.7c0.7-1.1,1.6-2.2,2.7-2.9c0.1-0.1,0.8-0.5,0.9-0.5
			c0.2-0.1,0.6-0.2,0.8,0c0.1,0.1,0.1,0.2,0,0.3C7,12.7,6.7,13,6.5,13.1c-0.1,0.2-0.9,1.1-1.1,1.4c-0.2,0.2-1,1.5-1.1,1.6
			c-1,1.8-1.8,4.6-1.7,6.7c0,0.4,0.1,1.1,0.2,1.5c0.1,0.6,0.5,1.3,1,1.7c0.5,0.4,1,0.4,1.7,0.1C5.6,26.1,5.8,26,5.8,26
			s-0.2-0.5-0.3-0.8c-0.3-1-0.5-2.6-0.3-3.7c0.1-0.9,0.3-1.6,0.7-2.3c0.3-0.6,0.8-1.1,1.3-1.6c0.5-0.4,1.4-0.8,2.1-0.9
			c0.6,0,1.2,0.3,1.6,0.8c0.6,1,0.6,2.5,0.4,3.5c-0.2,1.5-1,2.9-2.2,3.9C8.7,25.3,7.9,25.9,7.9,25.9L7.9,25.9z M56.5,20.3
			c0,0,0.1,0,0.1,0c0.4,0.1,0.5,0.5,0.6,0.8c0.2,0.8,0.3,2.7,0.3,3.4c0,0.5,0,1.1,0.1,1.6c0,0.5,0.1,1.1,0,1.5
			c0,0.2-0.1,0.3-0.3,0.4c-0.2,0.1-0.5,0.1-0.8,0.1c-0.5-0.1-0.7-0.4-0.8-0.9c-0.2-1.2-0.1-3.6,0-4.6c0-0.3,0.2-1.4,0.3-1.9
			C56.2,20.5,56.3,20.2,56.5,20.3L56.5,20.3z M40.6,22.1c0,0-0.8,0.1-1.3,0.1c-0.7,0.1-1.9,0.3-2.7,0.6c-0.2,0.1-0.7,0.3-0.7,0.5
			c0,0.2,0.1,0.4,0.3,0.6c0.1,0.1,0.6,0.6,0.8,0.7c0.6,0.5,1.9,1.3,2.8,1.7c0.3,0.1,0.8,0.3,0.8,0.3s0-1.5,0-3
			C40.6,22.9,40.6,22.1,40.6,22.1L40.6,22.1z M54.6,22.7c0,0.4-0.1,1.2-0.1,1.3c0,0.2-0.2,0.8-0.2,0.8c-0.1,0.3-0.3,0.6-0.4,0.9
			c-0.3,0.5-0.8,1.2-1.2,1.5c-1.3,1.1-3.4,1.8-5.1,2c-1.2,0.1-2.6,0.1-3.8-0.1c-0.4-0.1-1.1-0.2-1.1-0.2s0,0.3,0,0.4
			c0,0.1-0.1,0.3-0.1,0.4c-0.1,0.2-0.2,0.3-0.5,0.3c-0.3,0-0.5,0.1-0.8,0c-0.4-0.2-0.5-0.5-0.6-1c-0.1-0.3-0.1-0.9-0.1-0.9
			s-0.3-0.1-0.5-0.3c-0.8-0.4-1.5-0.8-2.1-1.3c-0.2-0.1-0.9-0.8-1.1-0.9c-0.5-0.4-0.9-0.9-1.2-1.5c-0.3-0.4-0.3-0.8-0.1-1.3
			c0.3-0.7,1.2-1.2,1.8-1.4c0.5-0.2,1.9-0.7,2.6-0.8c0.3,0,0.7-0.1,0.8-0.1c0,0,0,0,0,0c0,0,0-0.7,0-0.9c0-0.2,0.2-1.8,0.2-2.1
			c0-0.2,0.2-0.9,0.3-1c0.1-0.1,0.2-0.1,0.4,0c0.7,0.4,0.9,1.9,1,2.7c0,0.5,0,1.2,0,1.2s0.8,0,1.3,0c0.5,0,1,0.1,1.5,0.2
			c0.6,0.1,1.9,0.4,2.6,0.7c0.6,0.3,1.1,0.8,1.3,1.3c0.2,0.5,0.1,0.8-0.1,1.3c-0.3,0.5-0.8,0.9-1.4,0.9c-0.2,0-0.8-0.1-1-0.2
			c-0.1-0.1-0.1-0.2,0-0.2c0,0,0.3-0.2,0.5-0.3c0.1,0,0.2-0.1,0.2-0.2c0.1-0.1,0.3-0.3,0.3-0.4c0-0.2-0.2-0.3-0.4-0.4
			c-1-0.4-2.9-0.7-3.9-0.8c-0.4,0-0.9,0-0.9,0l0.1,5.2c0,0,0.4,0.1,0.8,0.1c0.2,0,1,0.1,1.2,0.1c1.7,0,3.6-0.1,5.1-0.8
			c0.7-0.3,1.3-0.7,1.8-1.3c0.6-0.7,0.9-1.7,0.9-2.7c-0.1-1.1-0.9-2.4-1.5-3.2c-1.6-2.1-4.5-3.9-6.9-4.9c-2.5-1-5-1.6-7.7-1.7
			c-0.7,0-2.2,0-3,0.2c-0.1,0-0.2,0.1-0.3,0.1c-0.1,0-0.2,0.1-0.2,0.1c0,0,0,0,0,0s0,0,0.1,0c0.1,0,0.4,0.1,0.6,0.1
			c0.2,0,0.3,0.1,0.4,0.2c0.1,0.1,0.1,0.2,0,0.3c-0.2,0.2-0.8,0.2-1.1,0.1c-0.3,0-0.7-0.1-0.7-0.4c-0.1-0.3,0.1-0.6,0.2-0.9
			c0.3-0.6,0.8-0.8,1.4-1c0.9-0.3,2.1-0.4,3-0.5c2-0.1,3.9,0.3,5.8,0.9c1.1,0.3,2.6,0.9,3.6,1.4c0.8,0.4,2,1,2.6,1.5
			c0.2,0.1,1.5,1.1,1.7,1.2c0.4,0.3,0.9,0.8,1.3,1.2c0.7,0.7,1.7,1.9,2.1,2.8c0.1,0.2,0.2,0.4,0.3,0.7c0,0.1,0.3,0.6,0.3,0.7
			c0,0.1,0.1,0.4,0.1,0.4C54.5,22.1,54.6,22.5,54.6,22.7L54.6,22.7z M63.3,23.1C63.3,23.1,63.3,23.1,63.3,23.1
			c0.7,0.1,1.3,0.2,1.8,0.4c0.4,0.2,0.7,0.4,0.9,0.9c0.3,0.6,0.4,1.5,0.1,2.2c-0.2,0.5-0.7,0.9-1.2,1.2c-0.5,0.2-1,0.3-1.5,0.4
			c-1,0.1-2-0.1-2.9-0.5c-0.5-0.3-1.1-0.7-1.5-1.2c-0.2-0.4-0.2-0.9,0.1-1.3c0.5-0.6,1.4-0.8,2.1-0.7c0.6,0,1.6,0.2,2.1,0.4
			c0.1,0.1,0.7,0.3,0.8,0.4c0.1,0.1,0.1,0.2,0.1,0.3c-0.1,0.4-1,0.6-1.3,0.6c-0.7,0.1-1.1-0.2-1.8-0.5c-0.2-0.1-0.5-0.2-0.7-0.2
			c-0.4,0-0.8,0.1-0.9,0.5c0,0.2,0.2,0.4,0.4,0.5c0.4,0.2,0.8,0.2,1.2,0.3c1.2,0,2.6-0.2,3.6-0.9c0.1-0.1,0.3-0.2,0.3-0.4
			c0-0.2-0.2-0.5-0.6-0.6c-0.7-0.3-1.9-0.4-2.6-0.5c-0.7-0.1-1.7-0.1-2-0.2c-0.3,0-0.5-0.1-0.8-0.2c-0.2-0.1-0.5-0.3-0.5-0.6
			c-0.1-0.5,0-1,0.3-1.4c0.7-1,2.2-1.3,3.4-1.5c1.1-0.1,3-0.1,4.1,0.5c0.2,0.1,0.3,0.2,0.2,0.4c-0.1,0.3-0.3,0.6-0.6,0.7
			c-0.3,0.1-1,0.1-1.3,0.2c-1.3,0.1-3,0-4.3,0.4c-0.1,0-0.3,0.1-0.3,0.1c-0.2,0.2,0.4,0.3,0.5,0.3c0,0,0,0,0.1,0L63.3,23.1z
			 M67.5,28.1c-0.5-0.2-0.7-1.1-0.7-1.5c-0.1-1.4,0.3-3.5,0.8-4.8c0.1-0.4,0.3-1,0.8-1c0.3,0,0.5,0.3,0.7,0.5c0.4,0.6,1,1.4,1.4,2
			c0.4,0.6,0.8,1.3,1.2,1.9c0,0.1,0.1,0.1,0.1,0.2c0.1,0.1,0.1,0.1,0.2,0c0,0,0-0.7,0-0.9c0-0.2,0-0.4-0.1-0.6
			c-0.1-0.6-0.3-1.4-0.4-2c-0.2-0.6-0.4-1.3-0.5-1.9c0-0.2-0.1-0.4-0.1-0.6c0-0.3,0.2-0.4,0.5-0.3c0.6,0.2,1.3,1.4,1.5,1.8
			c0.1,0.1,0.4,0.9,0.4,1.1c0.2,0.7,0.4,1.3,0.4,2.1c0.1,0.7,0,1.8-0.3,2.5c-0.1,0.3-0.3,0.6-0.5,0.8c-0.3,0.3-0.9,0.5-1.3,0.3
			c-0.5-0.3-1.2-1.6-1.3-1.8c-0.4-0.8-1.2-2.2-1.3-2.4c0,0-0.1-0.1-0.1-0.1c0,0-0.1,0.1-0.1,0.1c-0.1,0.4-0.1,2.4-0.1,2.5
			c0,0.3,0,1.2-0.1,1.6c-0.1,0.3-0.1,0.5-0.4,0.6C67.8,28.2,67.7,28.2,67.5,28.1L67.5,28.1z M75,28c-0.1,0-0.2-0.1-0.2-0.2
			c0,0-0.2-0.3-0.2-0.4c0-0.1-0.1-0.1-0.1-0.2c-0.2-0.5-0.2-0.9-0.1-1.4c0.1-0.5,0.2-0.5,0.4-1.1c0,0,0-0.1,0-0.1
			c0-0.1-0.1-0.7-0.1-0.9c0-0.3,0.2-0.5,0.6-0.5c0,0,0.1,0,0.1,0c0.1,0,0.2-0.3,0.3-0.5c0.1-0.3,0.3-0.8,0.3-0.8s-0.5-0.1-0.7-0.2
			c-0.3-0.1-0.5-0.2-0.6-0.5c-0.2-0.3-0.1-0.5,0.3-0.6c0.1,0,1-0.2,1.3-0.3c0.4-0.1,0.7-0.1,1-0.1c0.3,0,1.7-0.2,2.1-0.2
			c0.7,0,1.1,0.3,1.5,0.8c0.2,0.3,0.3,0.7,0,0.8c-0.5,0.3-2,0.3-2.3,0.3c-0.5,0-1.1,0-1.1,0L77.1,23c0,0,1.1,0,1.7,0
			c0.2,0,0.3,0,0.4,0c0.3,0.1,0.4,0.3,0.4,0.7c0,0.4-0.1,0.6-0.4,0.7c-0.2,0-2.1,0-2.4,0.1c-0.2,0-0.3,0-0.3,0s-0.1,0.4-0.3,0.7
			c-0.1,0.4-0.2,0.8-0.2,0.8s0.1,0,0.2,0c0.1,0,0.3,0,0.4,0c0.6-0.1,1.5-0.2,2.2-0.3c0.4-0.1,0.6-0.1,0.8,0.2
			c0.2,0.2,0.3,0.4,0.3,0.7c0,0.3-0.2,0.4-0.4,0.6c-0.8,0.6-2,1.2-3,1.3c-0.4,0.1-0.6,0-0.9-0.1c-0.1,0-0.3-0.1-0.3-0.2
			C75.2,28.1,75,28,75,28L75,28z M87.1,22.6c-0.5,0.4-1.1,1.3-1.4,1.7c-0.4,0.6-0.8,1.2-1.2,1.8c-0.1,0.1-0.3,0.5-0.3,0.5
			c0,0,0.3,0,0.5,0c0.5-0.1,1.2-0.5,1.6-0.8c0.6-0.5,1-1.1,1.2-1.8c0.1-0.3,0.1-1-0.1-1.4C87.3,22.6,87.2,22.6,87.1,22.6L87.1,22.6z
			 M83.2,28.7c0,0-0.2,0.5-0.3,0.8c-0.2,0.6-0.6,2.3-0.7,2.8c-0.2,0.8-0.6,2.8-0.6,2.8c0,0.1,0,0.1-0.1,0.1c-0.2,0.1-0.2,0.1-0.5,0
			c-0.3-0.1-0.5-0.3-0.7-0.6c-0.4-0.6-0.3-1.6-0.2-2.2c0.3-2.1,0.6-3.1,1.4-5.2c0,0,0,0,0-0.1c-0.3-0.5-0.4-1.2-0.4-1.7
			c0-1.7,1-3.3,2-4.6c0.1-0.1,0.6-0.7,0.8-0.7c0.2,0,0.3,0.3,0.2,0.5c-0.1,0.8-0.7,1.5-1,2.2c-0.4,0.7-0.5,1-0.7,1.7
			c0,0.1-0.1,0.6-0.1,0.6c0,0.2,0,0.4,0,0.4s0.7-0.9,1.1-1.5c0.2-0.3,0.4-0.5,0.6-0.8c0.2-0.2,1-1.1,1.2-1.3
			c0.5-0.5,0.7-0.6,1.2-0.9c0.4-0.2,0.8-0.3,1.2,0c0.6,0.4,0.9,1.3,1,2c0.1,0.9-0.1,1.8-0.5,2.5c-0.4,0.9-1.1,1.5-1.9,2
			c-0.8,0.6-1.8,0.9-2.8,0.9C83.3,28.7,83.2,28.7,83.2,28.7L83.2,28.7z"/>
	</g>
	<radialGradient id="SVGID_1_" cx="60.0146" cy="26.4486" r="1.2782" gradientUnits="userSpaceOnUse">
		<stop  offset="0" style="stop-color:#FFFFFF"/>
		<stop  offset="1" style="stop-color:#FFFFFF;stop-opacity:0"/>
	</radialGradient>
	<path class="st3" d="M59.5,26.4c0.4,0.2,0.8,0.2,1.2,0.3c1.2,0,2.6-0.2,3.6-0.9c0,0,0.1-0.1,0.1-0.1c-1,0.6-2.3,0.8-3.4,0.8
		c-0.4,0-0.8-0.1-1.2-0.3c-0.2-0.1-0.4-0.3-0.4-0.5c0-0.1,0.1-0.1,0.1-0.2c-0.2,0.1-0.4,0.2-0.4,0.4C59.1,26.2,59.3,26.4,59.5,26.4z
		"/>
	<radialGradient id="SVGID_2_" cx="79.1738" cy="20.3231" r="2.3619" gradientUnits="userSpaceOnUse">
		<stop  offset="0" style="stop-color:#FFFFFF;stop-opacity:0.6"/>
		<stop  offset="1" style="stop-color:#FFFFFF;stop-opacity:0"/>
	</radialGradient>
	<path class="st4" d="M74.5,20.8c0.1,0,1-0.2,1.3-0.3c0.4-0.1,0.7-0.1,1-0.1c0.3,0,1.7-0.2,2.1-0.2c0.7,0,1.1,0.3,1.5,0.8
		c0.2,0.2,0.3,0.5,0.2,0.7c0.1,0,0.1,0,0.2-0.1c0.3-0.2,0.2-0.5,0-0.8c-0.4-0.6-0.8-0.8-1.5-0.8c-0.4,0-1.8,0.1-2.1,0.2
		c-0.3,0-0.7,0.1-1,0.1c-0.3,0-1.2,0.2-1.3,0.3C74.7,20.6,74.6,20.7,74.5,20.8C74.5,20.8,74.5,20.8,74.5,20.8z"/>
	<radialGradient id="SVGID_3_" cx="59.7715" cy="13.6239" r="2.9503" gradientUnits="userSpaceOnUse">
		<stop  offset="0" style="stop-color:#FFFFFF;stop-opacity:0.6"/>
		<stop  offset="1" style="stop-color:#FFFFFF;stop-opacity:0"/>
	</radialGradient>
	<path class="st5" d="M56.4,13.5c0.7-0.3,1.7-0.5,2.5-0.2c0.3,0.1,0.6,0.3,0.8,0.5c0,0,0.1,0.1,0.1,0.1c0,0,0.1,0,0.2,0
		c0.2,0,0.6,0.2,0.7,0.4c0.3,0.3,0.4,0.5,0.5,0.8c0.1,0.7-0.3,1.5-0.7,1.9c-0.3,0.4-0.7,0.6-1,0.9c0.5-0.3,0.9-0.7,1.3-1.1
		c0.5-0.5,0.9-1.2,0.7-1.9c-0.1-0.3-0.2-0.6-0.5-0.8c-0.1-0.1-0.5-0.3-0.7-0.4c-0.1,0-0.2,0-0.2,0c0,0-0.1-0.1-0.1-0.1
		c-0.2-0.2-0.5-0.4-0.8-0.5c-0.8-0.3-1.8-0.1-2.5,0.2c-0.4,0.2-0.9,0.4-1.2,0.7C55.7,13.8,56,13.6,56.4,13.5z"/>
	<radialGradient id="SVGID_4_" cx="55.1433" cy="16.1143" r="0.7938" gradientUnits="userSpaceOnUse">
		<stop  offset="0" style="stop-color:#FFFFFF"/>
		<stop  offset="1" style="stop-color:#FFFFFF;stop-opacity:0"/>
	</radialGradient>
	<path class="st6" d="M54.6,16.9c0,0.1,0.1,0.2,0.1,0.2s0.1-0.2,0.2-0.4c0,0,0,0,0,0c-0.2-0.5,0.3-1.1,0.7-1.5c0,0,0.1-0.1,0.1-0.1
		c-0.2,0.1-0.3,0.2-0.4,0.3C54.9,15.8,54.4,16.4,54.6,16.9z"/>
	<radialGradient id="SVGID_5_" cx="69.7698" cy="22.7106" r="3.3985" gradientUnits="userSpaceOnUse">
		<stop  offset="0" style="stop-color:#FFFFFF"/>
		<stop  offset="1" style="stop-color:#FFFFFF;stop-opacity:0"/>
	</radialGradient>
	<path class="st7" d="M68,21c0.3,0,0.5,0.3,0.7,0.5c0.4,0.6,1,1.4,1.4,2c0.4,0.6,0.8,1.3,1.2,1.9c0,0.1,0.1,0.1,0.1,0.2
		c0.1,0.1,0.1,0.1,0.2,0c0,0,0-0.2,0-0.4c0,0,0,0,0,0c-0.4-0.6-0.8-1.2-1.2-1.9c-0.4-0.6-0.9-1.4-1.4-2c-0.2-0.2-0.4-0.5-0.7-0.5
		c-0.2,0-0.3,0.1-0.4,0.2C68,21,68,21,68,21z"/>
	<radialGradient id="SVGID_6_" cx="56.2462" cy="17.605" r="1.2782" gradientUnits="userSpaceOnUse">
		<stop  offset="0" style="stop-color:#FFFFFF"/>
		<stop  offset="1" style="stop-color:#FFFFFF;stop-opacity:0"/>
	</radialGradient>
	<path class="st8" d="M56.8,16.8c0.4-0.5,0.9-1,1.5-1.4c-0.6,0.4-1.4,1.1-1.8,1.6c-0.1,0.2-0.2,0.3-0.3,0.4
		c-0.1,0.1-0.1,0.1-0.1,0.2c0,0.1,0.7,0.1,1,0c0.7,0,1.3-0.2,1.9-0.6c0.2-0.1,0.3-0.2,0.5-0.3c-0.1,0-0.1,0.1-0.2,0.1
		c-0.6,0.3-1.2,0.5-1.9,0.6c-0.3,0-0.9,0-1,0c0,0,0-0.1,0.1-0.2C56.6,17.2,56.7,17,56.8,16.8z"/>
	<radialGradient id="SVGID_7_" cx="2.2885" cy="22.7775" r="8.1252" gradientUnits="userSpaceOnUse">
		<stop  offset="0" style="stop-color:#FFFFFF"/>
		<stop  offset="1" style="stop-color:#FFFFFF;stop-opacity:0"/>
	</radialGradient>
	<path class="st9" d="M6,12.3c0.2-0.1,0.6-0.2,0.8,0c0.1,0.1,0.1,0.2,0,0.3c-0.1,0.2-0.4,0.5-0.6,0.7c-0.1,0.2-0.9,1.1-1.1,1.4
		c-0.2,0.2-1,1.5-1.1,1.6c-1,1.8-1.8,4.6-1.8,6.7c0,0.4,0.1,1.1,0.2,1.5c0.1,0.6,0.5,1.3,1,1.7c0.5,0.4,1,0.4,1.7,0.1
		c0.2-0.1,0.4-0.2,0.4-0.2s0,0,0-0.1c0,0-0.1,0-0.1,0c-0.6,0.3-1.1,0.3-1.7-0.1c-0.5-0.4-0.8-1.1-1-1.7c-0.1-0.4-0.2-1.1-0.2-1.5
		c-0.1-2.2,0.7-5,1.8-6.7c0.1-0.2,0.9-1.4,1.1-1.6c0.2-0.2,1-1.2,1.1-1.4c0.2-0.2,0.5-0.5,0.6-0.7c0.1-0.1,0.1-0.2,0-0.3
		c-0.2-0.2-0.5-0.1-0.8,0c-0.1,0.1-0.8,0.4-0.9,0.5c0,0-0.1,0.1-0.1,0.1C5.6,12.6,5.9,12.4,6,12.3z"/>
	<radialGradient id="SVGID_8_" cx="15.8729" cy="14.2317" r="4.4408" gradientUnits="userSpaceOnUse">
		<stop  offset="0" style="stop-color:#FFFFFF"/>
		<stop  offset="1" style="stop-color:#FFFFFF;stop-opacity:0"/>
	</radialGradient>
	<path class="st10" d="M16.4,24.2c0.1-0.3,0.2-0.5,0.3-0.8c0.6-1.8,0.8-3.9,0.5-5.7c-0.2-1.4-0.5-2.5-1.2-3.8
		c-0.1-0.2-0.7-1.2-0.9-1.4c-0.6-0.9-1.3-1.5-2.3-2.1c-0.2-0.1-0.6-0.4-0.8-0.2c-0.1,0.1-0.1,0.1-0.1,0.2c0.2,0,0.5,0.2,0.6,0.3
		c1,0.6,1.7,1.2,2.3,2.1c0.2,0.2,0.8,1.2,0.9,1.4c0.7,1.3,1,2.4,1.2,3.8c0.2,1.8,0.1,3.9-0.5,5.7c-0.3,0.8-0.7,1.6-1.1,2.3
		c-0.1,0.2-0.7,1-0.8,1.1c-0.2,0.2-0.8,0.7-1,0.9c-0.1,0.1-0.2,0.2-0.4,0.3c0.2-0.2,0.4-0.3,0.7-0.5c0.3-0.2,0.8-0.7,1-0.9
		c0.1-0.1,0.7-0.9,0.8-1.1c0.3-0.4,0.5-0.9,0.7-1.3C16.3,24.3,16.3,24.2,16.4,24.2z"/>
	<radialGradient id="SVGID_9_" cx="11.132" cy="18.8358" r="5.2731" gradientUnits="userSpaceOnUse">
		<stop  offset="0" style="stop-color:#FFFFFF"/>
		<stop  offset="1" style="stop-color:#FFFFFF;stop-opacity:0"/>
	</radialGradient>
	<path class="st11" d="M9,17c0.6,0,1.2,0.3,1.6,0.8c0.6,1,0.6,2.5,0.4,3.5c-0.2,1.5-1,2.9-2.2,3.9c-0.4,0.3-1.2,0.9-1.2,0.9
		s0.1,0.1,0.2,0.3c0.4,0.6,1,1,1.7,1c0.7,0,1.7-0.4,2.2-0.8c0.1,0,0.1-0.1,0.1-0.1c-0.6,0.3-1.4,0.7-2.1,0.7c-0.7,0-1.3-0.4-1.7-1
		C8,26,7.9,25.9,7.9,25.9s0.8-0.6,1.2-0.9c1.1-1,1.9-2.4,2.2-3.9c0.2-1,0.1-2.5-0.4-3.5c-0.3-0.6-1-0.8-1.6-0.8
		c-0.7,0-1.4,0.3-1.9,0.7C7.8,17.2,8.4,17,9,17z"/>
	<radialGradient id="SVGID_10_" cx="7.7937" cy="21.2418" r="2.4064" gradientUnits="userSpaceOnUse">
		<stop  offset="0" style="stop-color:#FFFFFF"/>
		<stop  offset="1" style="stop-color:#FFFFFF;stop-opacity:0"/>
	</radialGradient>
	<path class="st12" d="M8.1,18.2c-0.2,0.3-0.4,0.8-0.5,1.2c-0.2,0.5-0.2,0.8-0.3,1.3c-0.1,0.9-0.3,2.4-0.1,3.4
		c0,0.2,0.1,0.4,0.1,0.4s0.1-0.2,0.3-0.3c0-0.1,0-0.2-0.1-0.3c-0.1-1,0-2.6,0.1-3.4c0.1-0.5,0.1-0.8,0.3-1.3C8,18.8,8.2,18.3,8.4,18
		c0,0,0.1-0.1,0.1-0.1C8.3,17.9,8.2,18,8.1,18.2z"/>
	<radialGradient id="SVGID_11_" cx="27.8162" cy="19.9603" r="1.6344" gradientUnits="userSpaceOnUse">
		<stop  offset="0" style="stop-color:#FFFFFF"/>
		<stop  offset="1" style="stop-color:#FFFFFF;stop-opacity:0"/>
	</radialGradient>
	<path class="st13" d="M27.3,19.6c0,0.1,0.1,0.2,0.1,0.2c0.3,0.3,1.3,0.7,1.7,0.8c0.1,0,0.7,0.2,0.8,0.2c0,0,0.1-0.1,0.1-0.2
		c-0.2,0-0.6-0.1-0.6-0.2C29,20.4,28,20,27.7,19.6c0-0.1-0.1-0.2-0.1-0.2c-0.1-0.2,0-0.5-0.2-0.5c-0.1,0-0.2,0.1-0.2,0.2
		C27.3,19.2,27.2,19.5,27.3,19.6z"/>
	<radialGradient id="SVGID_12_" cx="19.4589" cy="23.7894" r="0.931" gradientUnits="userSpaceOnUse">
		<stop  offset="0" style="stop-color:#FFFFFF"/>
		<stop  offset="1" style="stop-color:#FFFFFF;stop-opacity:0"/>
	</radialGradient>
	<path class="st14" d="M19.7,23.5c0.1-0.2,0.2-0.5,0.3-0.8c0.1-0.2,0.2-0.4,0.3-0.6c0-0.1,0-0.1-0.1-0.2c0,0,0,0,0,0
		s-0.3,0.6-0.5,1.1c-0.1,0.3-0.2,0.6-0.3,0.8c0,0-0.1,0.1-0.1,0.2c0,0,0,0.1,0,0.1s0.1,0,0.2,0c0.4,0,1.1-0.1,1.1-0.1s0-0.1,0-0.2
		c-0.2,0-0.5,0-0.7,0c-0.1,0-0.2,0-0.2,0s0,0,0-0.1C19.6,23.7,19.6,23.6,19.7,23.5z"/>
	<radialGradient id="SVGID_13_" cx="111.1611" cy="21.0139" r="1.0853" gradientUnits="userSpaceOnUse">
		<stop  offset="0" style="stop-color:#FFFFFF"/>
		<stop  offset="1" style="stop-color:#FFFFFF;stop-opacity:0"/>
	</radialGradient>
	<path class="st15" d="M111.1,20.5L111.1,20.5l0.1,1.6h0c0.1-0.1,0.2-0.3,0.3-0.4v-1.3l-0.1,0c-0.8,0.3-1.6,0.7-2.4,0.9v0.1
		C109.7,21,110.4,20.8,111.1,20.5z"/>
	<radialGradient id="SVGID_14_" cx="114.4886" cy="20.6254" r="0.8809" gradientUnits="userSpaceOnUse">
		<stop  offset="0" style="stop-color:#FFFFFF"/>
		<stop  offset="1" style="stop-color:#FFFFFF;stop-opacity:0"/>
	</radialGradient>
	<path class="st16" d="M113.2,20.5c0.6,0,0.9,0.4,0.9,0.9c0,0.2-0.1,0.4-0.1,0.5c0.3-0.1,0.5-0.4,0.5-0.7c0-0.6-0.3-0.9-0.9-0.9
		c-0.3,0-0.7,0.1-1,0.4C112.8,20.5,113,20.5,113.2,20.5z"/>
	<radialGradient id="SVGID_15_" cx="77.1432" cy="23.3417" r="1.279" gradientUnits="userSpaceOnUse">
		<stop  offset="0" style="stop-color:#FFFFFF;stop-opacity:0.6"/>
		<stop  offset="1" style="stop-color:#FFFFFF;stop-opacity:0"/>
	</radialGradient>
	<path class="st17" d="M79.6,23.7c0-0.4-0.1-0.6-0.4-0.7c-0.1,0-0.2,0-0.4,0c-0.6,0-1.7,0-1.7,0l0.3-0.8c-0.1,0-0.2,0-0.2,0
		l-0.3,1.1c0,0,1.1,0,1.7,0c0.2,0,0.3,0,0.4,0c0.3,0.1,0.4,0.3,0.4,0.7c0,0.2,0,0.3-0.1,0.4C79.6,24.3,79.7,24.1,79.6,23.7z"/>
	
		<radialGradient id="SVGID_16_" cx="119.6035" cy="25.3861" r="2.5715" gradientTransform="matrix(1 0 0 1.4531 0 -11.5036)" gradientUnits="userSpaceOnUse">
		<stop  offset="0" style="stop-color:#FFFFFF"/>
		<stop  offset="1" style="stop-color:#FFFFFF;stop-opacity:0"/>
	</radialGradient>
	<path class="st18" d="M121.7,27.4c-1.1,0-2.3-1-2.3-3.5c0-1.4,0.4-2.3,0.9-2.7c-0.7,0.4-1.2,1.3-1.2,3c0,2.6,1.2,3.5,2.3,3.5
		c0.4,0,0.8-0.2,1.1-0.4C122.2,27.3,122,27.4,121.7,27.4z"/>
	<radialGradient id="SVGID_17_" cx="84.0079" cy="25.4936" r="2.6369" gradientUnits="userSpaceOnUse">
		<stop  offset="0" style="stop-color:#FFFFFF"/>
		<stop  offset="1" style="stop-color:#FFFFFF;stop-opacity:0"/>
	</radialGradient>
	<path class="st19" d="M85.4,24.6c-0.4,0.6-0.8,1.2-1.2,1.8c-0.1,0.1-0.3,0.5-0.3,0.5c0,0,0.3,0,0.5,0c0.5-0.1,1.2-0.5,1.6-0.8
		c0,0,0,0,0,0c-0.4,0.2-0.9,0.5-1.3,0.6c-0.2,0-0.5,0.1-0.5,0c0,0,0.2-0.4,0.3-0.5c0.4-0.5,0.7-1.2,1.2-1.8c0.3-0.4,0.8-1.1,1.2-1.5
		c0,0-0.1,0-0.1,0C86.3,23.3,85.7,24.1,85.4,24.6z"/>
	<radialGradient id="SVGID_18_" cx="92.2074" cy="21.2856" r="4.2023" gradientUnits="userSpaceOnUse">
		<stop  offset="0" style="stop-color:#FFFFFF"/>
		<stop  offset="1" style="stop-color:#FFFFFF;stop-opacity:0"/>
	</radialGradient>
	<path class="st20" d="M93.6,24.6l-2.2-6.1c-0.1-0.2-0.2-0.5-0.2-0.8c0-0.1,0-0.2,0.1-0.3c-0.2,0.1-0.4,0.2-0.4,0.5
		c0,0.2,0.1,0.5,0.2,0.8l2.4,6.4L93.6,24.6z"/>
	<radialGradient id="SVGID_19_" cx="97.4472" cy="21.312" r="2.9035" gradientUnits="userSpaceOnUse">
		<stop  offset="0" style="stop-color:#FFFFFF"/>
		<stop  offset="1" style="stop-color:#FFFFFF;stop-opacity:0"/>
	</radialGradient>
	<path class="st21" d="M98.8,24.6l-2-5.5c-0.2-0.7-0.4-1-0.4-1.3c0-0.1,0-0.2,0.1-0.3c-0.2,0.1-0.4,0.2-0.4,0.5
		c0,0.3,0.2,0.7,0.4,1.3l2.2,5.8L98.8,24.6z"/>
	<radialGradient id="SVGID_20_" cx="76.3099" cy="26.426" r="1.7019" gradientUnits="userSpaceOnUse">
		<stop  offset="0" style="stop-color:#FFFFFF"/>
		<stop  offset="1" style="stop-color:#FFFFFF;stop-opacity:0"/>
	</radialGradient>
	<path class="st22" d="M79.9,26.5c0-0.3-0.1-0.5-0.3-0.7c-0.2-0.3-0.4-0.2-0.8-0.2c-0.7,0.1-1.6,0.2-2.2,0.3c-0.1,0-0.2,0-0.4,0
		c-0.1,0-0.2,0-0.2,0s0.1-0.4,0.2-0.8c0.1-0.2,0.1-0.4,0.2-0.5c-0.1,0-0.2,0-0.2,0s-0.1,0.4-0.3,0.7c-0.1,0.4-0.2,0.8-0.2,0.8
		s0.1,0,0.2,0c0.1,0,0.3,0,0.4,0c0.6-0.1,1.5-0.2,2.2-0.3c0.4-0.1,0.6-0.1,0.8,0.2c0.2,0.2,0.3,0.4,0.3,0.7c0,0.2-0.1,0.4-0.3,0.5
		c0.1,0,0.2-0.1,0.2-0.1C79.7,26.9,79.9,26.7,79.9,26.5z"/>
	<radialGradient id="SVGID_21_" cx="88.1114" cy="22.7911" r="2.5998" gradientUnits="userSpaceOnUse">
		<stop  offset="0" style="stop-color:#FFFFFF"/>
		<stop  offset="1" style="stop-color:#FFFFFF;stop-opacity:0"/>
	</radialGradient>
	<path class="st23" d="M87.6,21.2c-0.4-0.3-0.8-0.2-1.2,0c-0.3,0.1-0.4,0.3-0.6,0.4c0.1-0.1,0.2-0.1,0.3-0.2c0.4-0.2,0.8-0.3,1.2,0
		c0.6,0.4,0.9,1.3,1,2c0.1,0.9-0.1,1.8-0.5,2.5c-0.4,0.8-0.9,1.4-1.6,1.9c0,0,0,0,0.1,0c0.8-0.5,1.4-1.2,1.9-2
		c0.4-0.7,0.5-1.7,0.5-2.5C88.5,22.5,88.3,21.6,87.6,21.2z"/>
	<radialGradient id="SVGID_22_" cx="65.029" cy="20.4313" r="2.6483" gradientUnits="userSpaceOnUse">
		<stop  offset="0" style="stop-color:#FFFFFF;stop-opacity:0.6"/>
		<stop  offset="1" style="stop-color:#FFFFFF;stop-opacity:0"/>
	</radialGradient>
	<path class="st24" d="M66.2,20.7c-1.1-0.6-3-0.6-4.1-0.5c-1,0.1-2.2,0.4-2.9,1c0.8-0.5,1.8-0.7,2.6-0.8c1.1-0.1,3-0.1,4.1,0.5
		c0.2,0.1,0.3,0.2,0.2,0.4c0,0.2-0.1,0.3-0.2,0.4c0.3-0.1,0.5-0.3,0.5-0.6C66.5,20.9,66.4,20.8,66.2,20.7z"/>
	<radialGradient id="SVGID_23_" cx="64.2084" cy="23.4095" r="3.9326" gradientUnits="userSpaceOnUse">
		<stop  offset="0" style="stop-color:#FFFFFF"/>
		<stop  offset="1" style="stop-color:#FFFFFF;stop-opacity:0"/>
	</radialGradient>
	<path class="st25" d="M65,23.5c-0.5-0.2-1.1-0.3-1.7-0.4c0,0,0,0-0.1,0l-2.8-0.3c0,0,0,0-0.1,0c-0.1,0-0.5-0.1-0.5-0.2
		c-0.1,0-0.2,0.1-0.3,0.1c-0.2,0.2,0.4,0.3,0.5,0.3c0,0,0,0,0.1,0l2.8,0.3c0,0,0,0,0.1,0c0.6,0.1,1.2,0.2,1.7,0.4
		c0.4,0.2,0.7,0.4,0.9,0.9c0.3,0.6,0.4,1.5,0.1,2.2c-0.1,0.3-0.4,0.6-0.7,0.8c0.4-0.2,0.8-0.6,1-1c0.3-0.7,0.3-1.6-0.1-2.2
		C65.7,23.9,65.5,23.7,65,23.5z"/>
	<radialGradient id="SVGID_24_" cx="68.2577" cy="25.8487" r="1.6509" gradientUnits="userSpaceOnUse">
		<stop  offset="0" style="stop-color:#FFFFFF"/>
		<stop  offset="1" style="stop-color:#FFFFFF;stop-opacity:0"/>
	</radialGradient>
	<path class="st26" d="M68.5,23.6c0,0-0.1-0.1-0.1-0.1c0,0-0.1,0.1-0.1,0.1c-0.1,0.4-0.1,2.4-0.1,2.5c0,0.3,0,1.2-0.1,1.6
		c0,0.2-0.1,0.3-0.2,0.4c0,0,0.1,0,0.1,0c0.2-0.1,0.3-0.3,0.4-0.6c0.1-0.4,0.1-1.2,0.1-1.6c0,0,0-1.5,0.1-2.2
		C68.6,23.7,68.5,23.7,68.5,23.6z"/>
	<radialGradient id="SVGID_25_" cx="72.3834" cy="20.5529" r="3.8441" gradientUnits="userSpaceOnUse">
		<stop  offset="0" style="stop-color:#FFFFFF"/>
		<stop  offset="1" style="stop-color:#FFFFFF;stop-opacity:0"/>
	</radialGradient>
	<path class="st27" d="M73.2,21.9c-0.1-0.2-0.4-0.9-0.4-1.1c-0.2-0.4-0.9-1.6-1.5-1.8c-0.2-0.1-0.4,0-0.4,0.2c0,0,0.1,0,0.1,0
		c0.6,0.2,1.3,1.4,1.5,1.8c0.1,0.1,0.4,0.9,0.4,1.1c0.2,0.7,0.4,1.3,0.4,2.1c0.1,0.7,0,1.8-0.3,2.5c-0.1,0.3-0.3,0.6-0.5,0.8
		c0.1-0.1,0.2-0.1,0.3-0.2c0.2-0.2,0.4-0.5,0.5-0.8c0.3-0.7,0.4-1.8,0.3-2.5C73.5,23.3,73.4,22.6,73.2,21.9z"/>
	
		<radialGradient id="SVGID_26_" cx="116.0656" cy="22.2963" r="4.3613" gradientTransform="matrix(1 0 0 1.5467 0 -12.1901)" gradientUnits="userSpaceOnUse">
		<stop  offset="0" style="stop-color:#FFFFFF"/>
		<stop  offset="1" style="stop-color:#FFFFFF;stop-opacity:0"/>
	</radialGradient>
	<path class="st28" d="M116.8,26.7V16.5l-0.1,0c-0.9,0.3-1.7,0.5-2.6,0.8v0.1c0.8-0.2,1.5-0.4,2.3-0.7l0.1,0v10.2
		c0,1,0.3,1.1,1.2,1.2v0h0.3v-0.3C117.1,27.8,116.8,27.7,116.8,26.7z"/>
	
		<radialGradient id="SVGID_27_" cx="123.8475" cy="21.9926" r="4.1228" gradientTransform="matrix(1 0 0 1.4123 0 -9.0684)" gradientUnits="userSpaceOnUse">
		<stop  offset="0" style="stop-color:#FFFFFF"/>
		<stop  offset="1" style="stop-color:#FFFFFF;stop-opacity:0"/>
	</radialGradient>
	<path class="st29" d="M124.5,26.2v-9.7l-0.1,0c-0.8,0.3-1.6,0.5-2.4,0.8v0.1c0.7-0.2,1.4-0.4,2.1-0.7l0.1,0v9.7c0,0.7,0,1,1.1,1
		v0.2c0.1,0,0.2-0.1,0.3-0.1v-0.3C124.5,27.2,124.5,26.9,124.5,26.2z"/>
	<radialGradient id="SVGID_28_" cx="103.9019" cy="25.881" r="2.713" gradientUnits="userSpaceOnUse">
		<stop  offset="0" style="stop-color:#FFFFFF"/>
		<stop  offset="1" style="stop-color:#FFFFFF;stop-opacity:0"/>
	</radialGradient>
	<path class="st30" d="M102.6,23.6c0,1.3,0.4,4.4,2.3,4.4c0.3,0,0.7-0.1,1.1-0.4c-0.3,0.1-0.5,0.2-0.8,0.2c-2,0-2.3-3.2-2.3-4.4
		c0-1.1,0.3-1.8,0.8-2.2C103.1,21.5,102.6,22.3,102.6,23.6z"/>
	<radialGradient id="SVGID_29_" cx="112.0743" cy="24.8744" r="2.3913" gradientUnits="userSpaceOnUse">
		<stop  offset="0" style="stop-color:#FFFFFF"/>
		<stop  offset="1" style="stop-color:#FFFFFF;stop-opacity:0"/>
	</radialGradient>
	<path class="st31" d="M111.5,26.6v-3.9c0-0.4,0.3-0.9,0.6-1.1c-0.4,0.2-0.9,0.9-0.9,1.4v3.9c0,1.2,0.6,1.3,1.4,1.3v0h0.3v-0.3
		C112.1,27.9,111.5,27.8,111.5,26.6z"/>
	<radialGradient id="SVGID_30_" cx="107.6056" cy="21.495" r="3.3435" gradientUnits="userSpaceOnUse">
		<stop  offset="0" style="stop-color:#FFFFFF"/>
		<stop  offset="1" style="stop-color:#FFFFFF;stop-opacity:0"/>
	</radialGradient>
	<path class="st32" d="M105,20.3c-0.9,0-1.6,0.3-2.2,0.8c0.5-0.3,1.1-0.6,1.8-0.6c2.1,0,3.7,1.5,3.7,4c0,1.2-0.6,2.7-1.7,3.5
		c1.4-0.7,2-2.4,2-3.7C108.7,21.8,107.1,20.3,105,20.3z"/>
	<path class="st33" d="M47.3,23.9C47.3,23.9,47.3,23.9,47.3,23.9c-0.1,0.1-0.4,0.2-0.4,0.2c0,0,0,0,0,0c0.1,0,0.1-0.1,0.2-0.1
		C47.1,24,47.2,23.9,47.3,23.9z"/>
	<radialGradient id="SVGID_31_" cx="33.1536" cy="13.7127" r="0.5672" gradientUnits="userSpaceOnUse">
		<stop  offset="0" style="stop-color:#FFFFFF"/>
		<stop  offset="1" style="stop-color:#FFFFFF;stop-opacity:0"/>
	</radialGradient>
	<path class="st34" d="M33.4,13.4c-0.2,0-0.5-0.1-0.6-0.1c0,0,0,0,0,0c0,0-0.1,0-0.1,0c-0.1,0-0.2,0.1-0.2,0.1c0,0,0,0,0,0
		s0,0,0.1,0c0.1,0,0.4,0.1,0.6,0.1c0.2,0,0.3,0.1,0.4,0.2c0,0.1,0,0.1,0,0.2c0.1,0,0.2-0.1,0.3-0.1c0.1-0.1,0.1-0.2,0-0.3
		C33.8,13.5,33.6,13.5,33.4,13.4z"/>
	<radialGradient id="SVGID_32_" cx="37.65" cy="25.3781" r="3.3773" gradientUnits="userSpaceOnUse">
		<stop  offset="0" style="stop-color:#FFFFFF"/>
		<stop  offset="1" style="stop-color:#FFFFFF;stop-opacity:0"/>
	</radialGradient>
	<path class="st35" d="M37,24.6c-0.1-0.1-0.7-0.6-0.8-0.7c-0.2-0.2-0.3-0.4-0.3-0.6c0,0,0-0.1,0.1-0.1c-0.2,0.1-0.2,0.2-0.2,0.3
		c0,0.2,0.1,0.4,0.2,0.6c0.1,0.1,0.6,0.7,0.8,0.8c0.6,0.5,1.7,1.3,2.6,1.7c0.3,0.1,0.8,0.3,0.8,0.3s0-0.1,0-0.3
		c-0.2-0.1-0.4-0.1-0.5-0.2C38.8,25.9,37.6,25.1,37,24.6z"/>
	<radialGradient id="SVGID_33_" cx="33.332" cy="19.8235" r="1.5803" gradientUnits="userSpaceOnUse">
		<stop  offset="0" style="stop-color:#FFFFFF"/>
		<stop  offset="1" style="stop-color:#FFFFFF;stop-opacity:0"/>
	</radialGradient>
	<path class="st36" d="M33,19.3c-0.2-0.1-0.7-0.2-1-0.1c-0.4,0.1-0.8,0.3-1.1,0.5c0.2-0.1,0.5-0.3,0.8-0.3c0.2-0.1,0.7,0,1,0.1
		c0.1,0,0.2,0.1,0.5,0.4c0.2,0.3,0.4,0.7,0.4,1.1c0,0.4-0.1,0.8-0.3,1.1c-0.1,0.1-0.2,0.2-0.3,0.3c0.2-0.1,0.4-0.3,0.6-0.5
		c0.2-0.3,0.3-0.7,0.3-1.1c0-0.4-0.1-0.8-0.4-1.1C33.2,19.4,33,19.4,33,19.3z"/>
	<radialGradient id="SVGID_34_" cx="26.1863" cy="23.042" r="3.1268" gradientUnits="userSpaceOnUse">
		<stop  offset="0" style="stop-color:#FFFFFF"/>
		<stop  offset="1" style="stop-color:#FFFFFF;stop-opacity:0"/>
	</radialGradient>
	<path class="st37" d="M27.6,24.6C27.6,24.6,27.6,24.5,27.6,24.6c-0.3,0-0.6,0-0.8,0.1c-0.6,0.2-1.7,0.7-1.7,0.7
		c-0.2,0-0.2-0.1-0.2-0.3c-0.1-0.4,0.1-1.2,0.2-1.6c0.1-0.4,0.3-1.6,0.5-2.4c0.1-0.5,0.2-1,0.2-1.5c0-0.3-0.2-0.8-0.6-0.6
		c-0.1,0-0.2,0.1-0.3,0.2c0.4-0.1,0.5,0.3,0.6,0.6c0,0.4-0.1,1-0.2,1.5c-0.2,0.8-0.5,2.1-0.5,2.4c-0.1,0.4-0.2,1.2-0.2,1.6
		c0,0.2,0.1,0.3,0.2,0.3c0.1,0,1.1-0.5,1.7-0.7c0.2-0.1,0.5-0.2,0.7-0.2c0,0,0,0,0.1,0c0.3,0.1,0.3,0.6,0.2,0.9
		c-0.2,0.6-0.7,1.1-1.1,1.5c0,0,0.1-0.1,0.1-0.1c0.5-0.3,1.1-1,1.3-1.6C27.9,25.2,27.9,24.7,27.6,24.6z"/>
	<radialGradient id="SVGID_35_" cx="30.6235" cy="26.4082" r="3.7246" gradientUnits="userSpaceOnUse">
		<stop  offset="0" style="stop-color:#FFFFFF"/>
		<stop  offset="1" style="stop-color:#FFFFFF;stop-opacity:0"/>
	</radialGradient>
	<path class="st38" d="M30.8,22.9C30.8,22.9,30.8,22.8,30.8,22.9c-0.1,0-0.2,0.3-0.2,0.5c-0.1,0.4-0.1,0.7-0.2,1.1
		c0,0.3-0.1,0.6-0.1,0.9c-0.1,1.7-0.1,2.5,0,4.2c0,0.1,0,0.2,0,0.3c0,0.1-0.1,0.1-0.1,0.2c0,0,0,0,0,0c0.2-0.1,0.3-0.2,0.4-0.4
		c0-0.1,0-0.2,0-0.3c-0.1-1.7-0.2-2.5,0-4.2c0-0.3,0.1-0.6,0.1-0.9c0.1-0.3,0.1-0.7,0.2-1.1c0-0.1,0-0.1,0-0.2
		C30.9,22.9,30.8,22.9,30.8,22.9z"/>
	<radialGradient id="SVGID_36_" cx="31.463" cy="20.8568" r="0.4713" gradientUnits="userSpaceOnUse">
		<stop  offset="0" style="stop-color:#FFFFFF"/>
		<stop  offset="1" style="stop-color:#FFFFFF;stop-opacity:0"/>
	</radialGradient>
	<path class="st39" d="M31.3,21C31.3,21,31.3,21,31.3,21c0.4,0,0.7,0,1-0.2c0.1,0,0.2-0.1,0.3-0.2c-0.3,0.1-0.6,0.1-1,0.2
		c0,0,0,0,0,0c0.1-0.2,0.2-0.4,0.3-0.5C31.6,20.4,31.4,20.6,31.3,21z"/>
	<radialGradient id="SVGID_37_" cx="50.7456" cy="16.7845" r="16.2351" gradientUnits="userSpaceOnUse">
		<stop  offset="0" style="stop-color:#FFFFFF"/>
		<stop  offset="1" style="stop-color:#FFFFFF;stop-opacity:0"/>
	</radialGradient>
	<path class="st40" d="M54.5,22c0,0-0.1-0.2-0.1-0.4c0-0.1-0.2-0.7-0.3-0.7c-0.1-0.2-0.2-0.5-0.3-0.7c-0.4-0.9-1.4-2-2.1-2.8
		c-0.4-0.4-0.9-0.9-1.3-1.2c-0.2-0.2-1.4-1.1-1.7-1.2c-0.7-0.4-1.9-1.1-2.6-1.5c-1.1-0.5-2.5-1.1-3.6-1.4c-1.9-0.6-3.8-0.9-5.8-0.9
		c-0.9,0-2.1,0.2-3,0.5c-0.4,0.1-0.7,0.3-1,0.5c0.2-0.1,0.4-0.2,0.7-0.3c0.9-0.3,2.1-0.4,3-0.5c2-0.1,3.9,0.3,5.8,0.9
		c1.1,0.3,2.6,0.9,3.6,1.4c0.8,0.4,2,1,2.6,1.5c0.2,0.1,1.5,1.1,1.7,1.2c0.4,0.3,0.9,0.8,1.3,1.2c0.7,0.7,1.7,1.9,2.1,2.8
		c0.1,0.2,0.2,0.4,0.3,0.7c0,0.1,0.3,0.6,0.3,0.7c0,0.1,0.1,0.4,0.1,0.4c0,0.1,0.1,0.5,0.1,0.7c0,0.4-0.1,1.2-0.1,1.3
		c0,0.2-0.2,0.8-0.2,0.8c-0.1,0.3-0.3,0.6-0.4,0.9c-0.3,0.5-0.8,1.2-1.2,1.5c-0.1,0.1-0.2,0.2-0.4,0.3c0.2-0.2,0.5-0.3,0.7-0.5
		c0.4-0.3,1-1,1.2-1.5c0.1-0.3,0.3-0.5,0.4-0.9c0-0.1,0.2-0.6,0.2-0.8c0-0.1,0.1-0.9,0.1-1.3C54.7,22.5,54.6,22.1,54.5,22z"/>
	<radialGradient id="SVGID_38_" cx="57.3695" cy="21.8018" r="6.0897" gradientUnits="userSpaceOnUse">
		<stop  offset="0" style="stop-color:#FFFFFF;stop-opacity:0.6"/>
		<stop  offset="1" style="stop-color:#FFFFFF;stop-opacity:0"/>
	</radialGradient>
	<path class="st41" d="M57.6,24.5c0-0.7-0.1-2.6-0.3-3.4c-0.1-0.4-0.2-0.7-0.6-0.8c0,0-0.1,0-0.1,0c-0.1,0-0.2,0.1-0.3,0.2
		c0,0,0,0,0,0c0,0,0.1,0,0.1,0c0.4,0.1,0.5,0.5,0.6,0.8c0.2,0.8,0.3,2.7,0.3,3.4c0,0.5,0,1.1,0.1,1.6c0,0.5,0.1,1.1,0,1.5
		c0,0.1-0.1,0.2-0.1,0.3c0.1,0,0.1,0,0.2-0.1c0.1-0.1,0.2-0.3,0.3-0.4c0.1-0.4,0.1-1,0-1.5C57.6,25.6,57.6,25.1,57.6,24.5z"/>
	<radialGradient id="SVGID_39_" cx="42.655" cy="27.2573" r="6.8" gradientUnits="userSpaceOnUse">
		<stop  offset="0" style="stop-color:#FFFFFF"/>
		<stop  offset="1" style="stop-color:#FFFFFF;stop-opacity:0"/>
	</radialGradient>
	<path class="st42" d="M43.2,27.6c0.2,0,1,0.1,1.2,0.1c1.7,0,3.6-0.1,5.1-0.8c0.4-0.2,0.8-0.4,1.1-0.7c-0.3,0.2-0.5,0.3-0.8,0.4
		c-1.5,0.7-3.4,0.9-5.1,0.8c-0.2,0-1-0.1-1.2-0.1c-0.3-0.1-0.8-0.1-0.8-0.1L42.6,22c-0.2,0-0.2,0.2-0.2,0.2l0,5.2
		C42.4,27.4,42.9,27.5,43.2,27.6z"/>
	
		<radialGradient id="SVGID_40_" cx="44.4559" cy="20.4543" r="6.9227" gradientTransform="matrix(0.8865 0.4627 -0.3596 0.6889 12.4017 -14.2086)" gradientUnits="userSpaceOnUse">
		<stop  offset="0" style="stop-color:#FFFFFF;stop-opacity:0.6"/>
		<stop  offset="1" style="stop-color:#FFFFFF;stop-opacity:0"/>
	</radialGradient>
	<path class="st43" d="M42.3,20.4c0,0,0.8,0,1.3,0c0.5,0,1,0.1,1.5,0.2c0.6,0.1,1.9,0.4,2.6,0.7c0.6,0.3,1.1,0.8,1.3,1.3
		c0.2,0.5,0.1,0.8-0.1,1.3c-0.1,0.2-0.2,0.3-0.4,0.5c0.3-0.2,0.5-0.4,0.7-0.7c0.3-0.4,0.3-0.8,0.1-1.3c-0.2-0.5-0.7-1-1.3-1.3
		c-0.7-0.4-2-0.6-2.6-0.7c-0.5-0.1-1-0.2-1.5-0.2c-0.5,0-1.3,0-1.3,0s0-0.7,0-1.2c-0.1-0.8-0.3-2.3-1-2.7c-0.1-0.1-0.3-0.1-0.4,0
		c0,0,0,0.1-0.1,0.1c0,0,0.1,0,0.1,0c0.7,0.4,0.9,1.9,1,2.7C42.3,19.7,42.3,20.4,42.3,20.4z"/>
	<radialGradient id="SVGID_41_" cx="21.6166" cy="20.8872" r="3.4119" gradientUnits="userSpaceOnUse">
		<stop  offset="0" style="stop-color:#FFFFFF"/>
		<stop  offset="1" style="stop-color:#FFFFFF;stop-opacity:0"/>
	</radialGradient>
	<path class="st44" d="M22.6,24.9c-0.1-1.1-0.5-3.4-0.8-4.6c-0.1-0.2-0.4-1.1-0.5-1.4c-0.1-0.2-0.3-0.3-0.5-0.3
		c-0.2,0-0.4,0.1-0.4,0.2c0,0,0,0,0,0.1c0.1,0,0.1,0,0.2,0c0.2,0,0.4,0.1,0.5,0.3c0.2,0.3,0.5,1.2,0.5,1.4c0.3,1.2,0.7,3.4,0.8,4.6
		c0,0.3,0.1,1.9,0.1,2.2c0,0.2,0,0.6-0.1,0.8c0,0,0,0,0,0c0.1,0,0.2-0.1,0.2-0.1c0.1-0.2,0.1-0.6,0.1-0.9
		C22.7,26.8,22.6,25.2,22.6,24.9z"/>
	<radialGradient id="SVGID_42_" cx="161.1227" cy="15.782" r="12.7088" gradientUnits="userSpaceOnUse">
		<stop  offset="0" style="stop-color:#FFFFFF"/>
		<stop  offset="1" style="stop-color:#FFFFFF;stop-opacity:0"/>
	</radialGradient>
	<path class="st45" d="M165.7,9.6c-1.1-1.9-2.5-3.4-4.3-4.5c-0.9-0.6-2-1.1-3.1-1.4c-1.1-0.3-2.3-0.5-3.5-0.5v0.4
		c1.2,0,2.3,0.2,3.4,0.5c1.1,0.3,2.1,0.8,3,1.3c1.7,1.1,3.1,2.5,4.1,4.3c1,1.8,1.6,3.8,1.6,6c0,1.2-0.2,2.3-0.5,3.4
		c-0.3,1.1-0.8,2.1-1.3,3c-1.1,1.7-2.5,3.1-4.3,4.1c-1.8,1-3.8,1.6-5.9,1.6v0.4c2.2,0,4.3-0.5,6.1-1.6c1.9-1.1,3.4-2.5,4.5-4.3
		c0.6-0.9,1.1-2,1.4-3.1c0.3-1.1,0.5-2.3,0.5-3.5C167.4,13.6,166.8,11.5,165.7,9.6z"/>
	<radialGradient id="SVGID_43_" cx="149.628" cy="15.6861" r="11.0209" gradientUnits="userSpaceOnUse">
		<stop  offset="0" style="stop-color:#FFFFFF"/>
		<stop  offset="1" style="stop-color:#FFFFFF;stop-opacity:0"/>
	</radialGradient>
	<path class="st46" d="M155.1,26c-0.1,0-0.1,0-0.2,0c-1.7,0-3.4-0.5-4.9-1.4c-1.6-0.9-2.9-2.1-3.8-3.5c-0.5-0.8-0.9-1.7-1.2-2.6
		c-0.3-0.9-0.4-1.9-0.4-2.9c0-2.9,1-5.3,3-7.3c2-2,4.5-3,7.3-3c0.1,0,0.1,0,0.2,0V4.9c-0.1,0-0.1,0-0.2,0c-3,0-5.5,1.1-7.6,3.2
		c-2.1,2.1-3.2,4.7-3.2,7.6c0,1,0.2,2,0.5,3c0.3,0.9,0.7,1.8,1.3,2.7c1,1.5,2.3,2.7,4,3.7c1.6,0.9,3.3,1.4,5.1,1.4
		c0.1,0,0.1,0,0.2,0V26z"/>
	<polygon class="st47" points="130.6,1.1 131,1.5 143.8,1.5 143.8,2.8 144.2,3.2 144.2,1.1 	"/>
	
		<radialGradient id="SVGID_44_" cx="138.8522" cy="24.8704" r="9.5672" gradientTransform="matrix(1 0 0 1.1815 0 -4.5136)" gradientUnits="userSpaceOnUse">
		<stop  offset="0" style="stop-color:#FFFFFF"/>
		<stop  offset="1" style="stop-color:#FFFFFF;stop-opacity:0"/>
	</radialGradient>
	<path class="st48" d="M144.2,27.8c0-0.2,0-0.4,0-0.7l0-0.1c0-0.1,0-0.2,0-0.3c0-0.2,0-0.5-0.1-0.7c0-0.1,0-0.2-0.1-0.4
		c0-0.2-0.1-0.3-0.1-0.5l-0.1-0.3c-0.1-0.3-0.1-0.5-0.2-0.8l-0.1-0.2c-0.1-0.2-0.1-0.4-0.2-0.7c-0.3-0.9-0.8-1.8-1.3-2.6
		c-1-1.6-2.4-3-4-4.1l-0.1,0c-1.1-0.7-2.3-1.3-3.5-1.7l-0.6,0.2c1.4,0.4,2.8,1,3.9,1.8l0.1,0c1.5,1.1,2.8,2.4,3.8,3.9
		c0.5,0.8,0.9,1.6,1.2,2.6c0.1,0.2,0.1,0.4,0.2,0.6l0,0.1l0,0.1c0.1,0.2,0.1,0.5,0.2,0.7l0.1,0.3c0,0.2,0.1,0.3,0.1,0.5
		c0,0.1,0,0.2,0.1,0.3c0,0.2,0.1,0.4,0.1,0.7c0,0.1,0,0.2,0,0.3l0,0.1c0,0.2,0,0.4,0,0.6l0,0.2l0.2,0l-0.2,0l0,0.1
		c0,0.2,0,0.4,0,0.6l0,0.1c0,0.1,0,0.2,0,0.3c0,0.2,0,0.4-0.1,0.7c0,0.1,0,0.2-0.1,0.4c0,0.2-0.1,0.3-0.1,0.5l-0.1,0.3
		c-0.1,0.3-0.1,0.5-0.2,0.7l-0.1,0.2c-0.1,0.2-0.1,0.4-0.2,0.6c-0.3,0.9-0.7,1.8-1.2,2.6c-1,1.5-2.3,2.9-3.8,3.9l-0.1,0
		c-1.5,1-1.4,1.5,0.2,0.4l0.1,0c1.6-1.1,2.9-2.5,4-4.1c0.5-0.8,0.9-1.7,1.3-2.6c0.1-0.2,0.2-0.4,0.2-0.7l0-0.2
		c0.1-0.3,0.1-0.5,0.2-0.8l0.1-0.3c0-0.2,0.1-0.3,0.1-0.5c0-0.1,0-0.2,0.1-0.4c0-0.2,0.1-0.5,0.1-0.7c0-0.1,0-0.2,0-0.3l0-0.1
		c0-0.2,0-0.4,0-0.7l0-0.1L144.2,27.8z"/>
	<path class="st49" d="M132.7,14.3C132.7,14.3,132.7,14.3,132.7,14.3l0-11.1L132.3,3v11.7l0.1,0L132.7,14.3z"/>
	<radialGradient id="SVGID_45_" cx="8.2146" cy="26.7221" r="1.3744" gradientUnits="userSpaceOnUse">
		<stop  offset="0" style="stop-color:#FFFFFF"/>
		<stop  offset="1" style="stop-color:#FFFFFF;stop-opacity:0"/>
	</radialGradient>
	<path class="st50" d="M7.6,26.1c0,0,0.1,0.1,0.2,0.3c0.4,0.6,1,1,1.7,1c0.7,0,1.7-0.4,2.2-0.8c0.1,0,0.1-0.1,0.1-0.1
		c-0.6,0.3-1.4,0.7-2.1,0.7c-0.7,0-1.3-0.4-1.7-1C8,26,7.9,25.8,7.9,25.8L7.6,26.1z"/>
</g>
<path class="st51" d="M128,27.1c0.2,0,0.3,0,0.3-0.2c0-0.2-0.1-0.2-0.3-0.2h-0.3v0.4H128z M127.7,27.9h-0.2v-1.3h0.5
	c0.3,0,0.5,0.1,0.5,0.4c0,0.2-0.1,0.3-0.3,0.4l0.4,0.6h-0.2l-0.4-0.6h-0.2V27.9z M128,28.2c0.5,0,0.9-0.4,0.9-1c0-0.5-0.4-1-0.9-1
	c-0.5,0-0.9,0.4-0.9,1C127,27.7,127.4,28.2,128,28.2 M126.8,27.2c0-0.7,0.5-1.1,1.2-1.1c0.6,0,1.2,0.5,1.2,1.1
	c0,0.7-0.5,1.2-1.2,1.2C127.3,28.3,126.8,27.9,126.8,27.2"/>
<linearGradient id="SVGID_46_" gradientUnits="userSpaceOnUse" x1="127.7661" y1="25.4237" x2="128.1308" y2="29.3896">
	<stop  offset="0" style="stop-color:#F5DFB2"/>
	<stop  offset="0.5347" style="stop-color:#F0CF95"/>
	<stop  offset="1" style="stop-color:#B48A5C"/>
</linearGradient>
<path class="st52" d="M127.9,27.2c0.2,0,0.3,0,0.3-0.2c0-0.2-0.1-0.2-0.3-0.2h-0.3v0.4H127.9z M127.7,27.9h-0.2v-1.3h0.5
	c0.3,0,0.5,0.1,0.5,0.4c0,0.2-0.1,0.3-0.3,0.4l0.4,0.6h-0.2l-0.4-0.6h-0.2V27.9z M127.9,28.2c0.5,0,0.9-0.4,0.9-1c0-0.5-0.4-1-0.9-1
	c-0.5,0-0.9,0.4-0.9,1C127,27.8,127.4,28.2,127.9,28.2 M126.8,27.2c0-0.7,0.5-1.1,1.2-1.1c0.6,0,1.2,0.5,1.2,1.1
	c0,0.7-0.5,1.2-1.2,1.2C127.3,28.4,126.8,27.9,126.8,27.2"/>
</svg>
